<svg width="17" height="18" viewBox="0 0 17 18" fill="none" xmlns="http://www.w3.org/2000/svg">
<path d="M6.53846 0C5.84482 0 5.17958 0.270918 4.68911 0.753154C4.19863 1.23539 3.92308 1.88944 3.92308 2.57143V5.409C4.35053 5.29003 4.78832 5.2104 5.23077 5.17114V2.57143C5.23077 2.23044 5.36854 1.90341 5.61378 1.66229C5.85902 1.42117 6.19164 1.28571 6.53846 1.28571H10.4615V4.5C10.4615 5.01149 10.6682 5.50203 11.0361 5.86371C11.4039 6.22538 11.9028 6.42857 12.4231 6.42857H15.6923V15.4286C15.6923 15.7696 15.5545 16.0966 15.3093 16.3377C15.0641 16.5788 14.7314 16.7143 14.3846 16.7143H11.4332C11.0226 17.2027 10.5477 17.6351 10.0208 18H14.3846C15.0783 18 15.7435 17.7291 16.234 17.2468C16.7245 16.7646 17 16.1106 17 15.4286V5.67514C16.9995 5.16383 16.7926 4.67362 16.4246 4.31229L12.614 0.564429C12.2463 0.203119 11.7477 0.000109133 11.2278 0H6.53846ZM15.4216 5.14286H12.4231C12.2497 5.14286 12.0834 5.07513 11.9607 4.95457C11.8381 4.83401 11.7692 4.6705 11.7692 4.5V1.55186L15.4216 5.14286ZM11.7692 12.2143C11.7692 13.7488 11.1492 15.2204 10.0457 16.3054C8.94209 17.3904 7.44531 18 5.88462 18C4.32392 18 2.82714 17.3904 1.72356 16.3054C0.619984 15.2204 0 13.7488 0 12.2143C0 10.6798 0.619984 9.2082 1.72356 8.12317C2.82714 7.03814 4.32392 6.42857 5.88462 6.42857C7.44531 6.42857 8.94209 7.03814 10.0457 8.12317C11.1492 9.2082 11.7692 10.6798 11.7692 12.2143ZM6.53846 9.64286C6.53846 9.47236 6.46957 9.30885 6.34695 9.18829C6.22433 9.06773 6.05803 9 5.88462 9C5.7112 9 5.5449 9.06773 5.42228 9.18829C5.29966 9.30885 5.23077 9.47236 5.23077 9.64286V11.5714H3.26923C3.09582 11.5714 2.92951 11.6392 2.80689 11.7597C2.68427 11.8803 2.61538 12.0438 2.61538 12.2143C2.61538 12.3848 2.68427 12.5483 2.80689 12.6689C2.92951 12.7894 3.09582 12.8571 3.26923 12.8571H5.23077V14.7857C5.23077 14.9562 5.29966 15.1197 5.42228 15.2403C5.5449 15.3608 5.7112 15.4286 5.88462 15.4286C6.05803 15.4286 6.22433 15.3608 6.34695 15.2403C6.46957 15.1197 6.53846 14.9562 6.53846 14.7857V12.8571H8.5C8.67341 12.8571 8.83972 12.7894 8.96234 12.6689C9.08496 12.5483 9.15385 12.3848 9.15385 12.2143C9.15385 12.0438 9.08496 11.8803 8.96234 11.7597C8.83972 11.6392 8.67341 11.5714 8.5 11.5714H6.53846V9.64286Z" fill="#4700E0"/>
</svg>
