<svg width="21" height="16" viewBox="0 0 21 16" fill="none" xmlns="http://www.w3.org/2000/svg">
<g opacity="0.4">
<path d="M1 2.89412C1 2.39177 1.19729 1.90999 1.54847 1.55477C1.89965 1.19956 2.37595 1 2.87259 1H17.8533C18.35 1 18.8263 1.19956 19.1775 1.55477C19.5286 1.90999 19.7259 2.39177 19.7259 2.89412V12.3647C19.7259 12.8671 19.5286 13.3488 19.1775 13.704C18.8263 14.0593 18.35 14.2588 17.8533 14.2588H2.87259C2.37595 14.2588 1.89965 14.0593 1.54847 13.704C1.19729 13.3488 1 12.8671 1 12.3647V2.89412Z" stroke="white" stroke-width="2" stroke-linecap="round" stroke-linejoin="round"/>
<path d="M10.363 10.4704C11.9143 10.4704 13.1719 9.1984 13.1719 7.62926C13.1719 6.06012 11.9143 4.78809 10.363 4.78809C8.81166 4.78809 7.55408 6.06012 7.55408 7.62926C7.55408 9.1984 8.81166 10.4704 10.363 10.4704Z" stroke="white" stroke-width="2" stroke-linecap="round" stroke-linejoin="round"/>
<path d="M15.9807 14.2588C15.9807 13.2541 16.3753 12.2906 17.0777 11.5801C17.78 10.8697 18.7326 10.4706 19.7259 10.4706M1 4.78824C1.99329 4.78824 2.94589 4.38912 3.64825 3.67869C4.35061 2.96826 4.74519 2.0047 4.74519 1L1 4.78824Z" stroke="white" stroke-width="2" stroke-linecap="round" stroke-linejoin="round"/>
</g>
</svg>
