<svg width="55" height="55" viewBox="0 0 55 55" fill="none" xmlns="http://www.w3.org/2000/svg">
<path d="M29.7917 14.323C29.7917 14.9308 29.5502 15.5137 29.1205 15.9434C28.6907 16.3732 28.1078 16.6147 27.5 16.6147C26.8922 16.6147 26.3093 16.3732 25.8795 15.9434C25.4498 15.5137 25.2083 14.9308 25.2083 14.323C25.2083 13.7152 25.4498 13.1323 25.8795 12.7025C26.3093 12.2728 26.8922 12.0313 27.5 12.0313C28.1078 12.0313 28.6907 12.2728 29.1205 12.7025C29.5502 13.1323 29.7917 13.7152 29.7917 14.323ZM29.865 5.3282C29.1784 4.82683 28.3502 4.55664 27.5 4.55664C26.6498 4.55664 25.8216 4.82683 25.135 5.3282L8.12854 17.7376C5.88729 19.3715 7.04458 22.9167 9.81521 22.9167H10.3125V36.2084C9.27768 36.7365 8.40897 37.5403 7.80234 38.5312C7.19572 39.522 6.87478 40.6612 6.875 41.823V45.2605C6.875 46.2069 7.645 46.9792 8.59375 46.9792H25.5887C25.2844 45.8602 25.1606 44.6998 25.2221 43.5417H10.3125V41.823C10.3125 40.2394 11.5958 38.9584 13.1771 38.9584H26.5054C27.2252 37.6235 28.2148 36.4528 29.4112 35.5209H29.2187V22.9167H33.2292V33.6074C34.1629 33.354 35.1262 33.2261 36.0937 33.2269H36.6667V22.9167H41.25V33.2292H44.1146C44.3071 33.2292 44.4973 33.2338 44.6875 33.2453V22.9167H45.1848C47.9577 22.9167 49.1127 19.3738 46.8715 17.7376L29.865 5.3282ZM27.1608 8.1034C27.259 8.03171 27.3773 7.99306 27.4989 7.99306C27.6204 7.99306 27.7388 8.03171 27.8369 8.1034L43.4271 19.4792H11.5729L27.1631 8.1034H27.1608ZM25.7812 22.9167V35.5209H21.7708V22.9167H25.7812ZM13.75 35.5209V22.9167H18.3333V35.5209H13.75ZM52.7083 44.1146C52.7083 41.8354 51.8029 39.6496 50.1913 38.0379C48.5796 36.4263 46.3938 35.5209 44.1146 35.5209L43.8808 35.5369C43.4494 35.5963 43.0566 35.8172 42.7818 36.155C42.507 36.4928 42.3707 36.9223 42.4004 37.3568C42.43 37.7913 42.6235 38.1982 42.9417 38.4955C43.2599 38.7928 43.6791 38.9583 44.1146 38.9584L44.4675 38.9721C45.797 39.0693 47.0372 39.6775 47.9279 40.6692C48.8187 41.6609 49.2908 42.9591 49.2451 44.2913C49.1994 45.6235 48.6396 46.8863 47.6831 47.8147C46.7265 48.7431 45.4476 49.265 44.1146 49.2709L44.1077 49.2824L43.874 49.2984C43.4413 49.3578 43.0475 49.5797 42.7725 49.919C42.4976 50.2583 42.3621 50.6896 42.3936 51.1252C42.4251 51.5608 42.6212 51.968 42.9422 52.2642C43.2631 52.5604 43.6847 52.7233 44.1215 52.7199V52.7084L44.5798 52.6969C46.7754 52.5779 48.8419 51.6218 50.354 50.0253C51.866 48.4288 52.7086 46.3135 52.7083 44.1146ZM37.8125 37.2396C37.8125 36.7838 37.6314 36.3466 37.3091 36.0243C36.9868 35.702 36.5496 35.5209 36.0937 35.5209L35.6354 35.5324C33.3963 35.648 31.2911 36.6342 29.7689 38.2804C28.2468 39.9267 27.4283 42.1026 27.4881 44.3439C27.5479 46.5852 28.4813 48.7144 30.0891 50.2771C31.6968 51.8398 33.8517 52.7123 36.0937 52.7084L36.3275 52.6946C36.7626 52.6395 37.1602 52.42 37.4387 52.0813C37.7173 51.7425 37.8559 51.3101 37.826 50.8725C37.7961 50.4349 37.6001 50.0253 37.278 49.7276C36.956 49.4298 36.5323 49.2664 36.0937 49.2709L35.7408 49.2594C34.4052 49.1703 33.1566 48.5652 32.259 47.5722C31.3614 46.5791 30.8852 45.2759 30.931 43.9381C30.9769 42.6003 31.5412 41.3327 32.5046 40.4034C33.4681 39.4741 34.7552 38.9559 36.0937 38.9584L36.3275 38.9446C36.7394 38.8881 37.1168 38.6842 37.3898 38.3707C37.6629 38.0572 37.813 37.6554 37.8125 37.2396ZM45.8333 44.1146C45.8333 43.6588 45.6522 43.2216 45.3299 42.8993C45.0076 42.577 44.5704 42.3959 44.1146 42.3959H36.0937L35.86 42.4119C35.4286 42.4713 35.0358 42.6922 34.761 43.03C34.4862 43.3678 34.3498 43.7973 34.3795 44.2318C34.4092 44.6663 34.6027 45.0732 34.9209 45.3705C35.2391 45.6678 35.6583 45.8333 36.0937 45.8334H44.1146L44.3483 45.8196C44.7602 45.7631 45.1376 45.5592 45.4107 45.2457C45.6837 44.9322 45.8339 44.5304 45.8333 44.1146Z" fill="white"/>
</svg>
