<svg width="30" height="30" viewBox="0 0 30 30" fill="none" xmlns="http://www.w3.org/2000/svg">
<path d="M1.875 20.625H28.125V22.5H1.875V20.625Z" fill="#C1CDF6"/>
<path d="M1.875 24.375H28.125V26.25H1.875V24.375Z" fill="#C1CDF6"/>
<path d="M22.5 9.375C22.1292 9.375 21.7666 9.48497 21.4583 9.69099C21.15 9.89702 20.9096 10.1899 20.7677 10.5325C20.6258 10.8751 20.5887 11.2521 20.661 11.6158C20.7334 11.9795 20.912 12.3136 21.1742 12.5758C21.4364 12.838 21.7705 13.0166 22.1342 13.089C22.4979 13.1613 22.8749 13.1242 23.2175 12.9823C23.5601 12.8404 23.853 12.6 24.059 12.2917C24.265 11.9834 24.375 11.6208 24.375 11.25C24.375 10.7527 24.1775 10.2758 23.8258 9.92418C23.4742 9.57254 22.9973 9.375 22.5 9.375Z" fill="#C1CDF6"/>
<path d="M15 15C14.2583 15 13.5333 14.7801 12.9166 14.368C12.2999 13.956 11.8193 13.3703 11.5355 12.6851C11.2516 11.9998 11.1774 11.2458 11.3221 10.5184C11.4668 9.79098 11.8239 9.1228 12.3484 8.59835C12.8728 8.0739 13.541 7.71675 14.2684 7.57206C14.9958 7.42736 15.7498 7.50162 16.4351 7.78545C17.1203 8.06928 17.706 8.54993 18.118 9.16661C18.5301 9.7833 18.75 10.5083 18.75 11.25C18.7488 12.2442 18.3533 13.1973 17.6503 13.9003C16.9473 14.6033 15.9942 14.9988 15 15ZM15 9.375C14.6292 9.375 14.2667 9.48497 13.9583 9.691C13.65 9.89702 13.4096 10.1899 13.2677 10.5325C13.1258 10.8751 13.0887 11.2521 13.161 11.6158C13.2334 11.9795 13.412 12.3136 13.6742 12.5758C13.9364 12.8381 14.2705 13.0166 14.6342 13.089C14.9979 13.1613 15.3749 13.1242 15.7175 12.9823C16.0601 12.8404 16.353 12.6 16.559 12.2917C16.765 11.9834 16.875 11.6208 16.875 11.25C16.8745 10.7529 16.6768 10.2762 16.3253 9.92473C15.9738 9.5732 15.4971 9.3755 15 9.375Z" fill="#C1CDF6"/>
<path d="M7.5 9.375C7.12916 9.375 6.76665 9.48497 6.45831 9.69099C6.14996 9.89702 5.90964 10.1899 5.76773 10.5325C5.62581 10.8751 5.58868 11.2521 5.66103 11.6158C5.73338 11.9795 5.91195 12.3136 6.17418 12.5758C6.4364 12.838 6.77049 13.0166 7.13421 13.089C7.49792 13.1613 7.87492 13.1242 8.21753 12.9823C8.56014 12.8404 8.85298 12.6 9.05901 12.2917C9.26503 11.9834 9.375 11.6208 9.375 11.25C9.375 10.7527 9.17746 10.2758 8.82583 9.92418C8.4742 9.57254 7.99728 9.375 7.5 9.375Z" fill="#C1CDF6"/>
<path d="M26.25 18.75H3.75C3.2531 18.7488 2.7769 18.5508 2.42554 18.1995C2.07418 17.8481 1.87624 17.3719 1.875 16.875V5.625C1.87624 5.1281 2.07418 4.6519 2.42554 4.30054C2.7769 3.94918 3.2531 3.75124 3.75 3.75H26.25C26.7469 3.75124 27.2231 3.94918 27.5745 4.30054C27.9258 4.6519 28.1238 5.1281 28.125 5.625V16.875C28.1243 17.3721 27.9265 17.8485 27.575 18.2C27.2235 18.5515 26.7471 18.7493 26.25 18.75ZM26.25 5.625H3.75V16.875H26.25V5.625Z" fill="#C1CDF6"/>
</svg>
