<svg width="43" height="43" viewBox="0 0 43 43" fill="none" xmlns="http://www.w3.org/2000/svg">
<circle cx="21.5" cy="21.5" r="21.5" fill="url(#paint0_radial_11710_94442)"/>
<path d="M19.9374 17.333C19.527 17.333 19.1207 17.4138 18.7415 17.5709C18.3624 17.7279 18.0179 17.9581 17.7277 18.2483C17.4375 18.5385 17.2073 18.883 17.0503 19.2621C16.8932 19.6413 16.8124 20.0476 16.8124 20.458C16.8124 20.8684 16.8932 21.2748 17.0503 21.6539C17.2073 22.033 17.4375 22.3775 17.7277 22.6677C18.0179 22.9579 18.3624 23.1881 18.7415 23.3451C19.1207 23.5022 19.527 23.583 19.9374 23.583C20.7662 23.583 21.5611 23.2538 22.1471 22.6677C22.7332 22.0817 23.0624 21.2868 23.0624 20.458C23.0624 19.6292 22.7332 18.8343 22.1471 18.2483C21.5611 17.6622 20.7662 17.333 19.9374 17.333ZM18.3749 20.458C18.3749 20.0436 18.5395 19.6462 18.8326 19.3532C19.1256 19.0601 19.523 18.8955 19.9374 18.8955C20.3518 18.8955 20.7492 19.0601 21.0423 19.3532C21.3353 19.6462 21.4999 20.0436 21.4999 20.458C21.4999 20.8724 21.3353 21.2698 21.0423 21.5629C20.7492 21.8559 20.3518 22.0205 19.9374 22.0205C19.523 22.0205 19.1256 21.8559 18.8326 21.5629C18.5395 21.2698 18.3749 20.8724 18.3749 20.458ZM11.0833 16.5518C11.0833 15.9302 11.3302 15.334 11.7697 14.8945C12.2093 14.4549 12.8054 14.208 13.427 14.208H26.4478C26.7556 14.208 27.0604 14.2686 27.3447 14.3864C27.6291 14.5042 27.8875 14.6768 28.1051 14.8945C28.3228 15.1121 28.4954 15.3705 28.6132 15.6548C28.731 15.9392 28.7916 16.244 28.7916 16.5518V24.3643C28.7916 24.672 28.731 24.9768 28.6132 25.2612C28.4954 25.5455 28.3228 25.8039 28.1051 26.0215C27.8875 26.2392 27.6291 26.4118 27.3447 26.5296C27.0604 26.6474 26.7556 26.708 26.4478 26.708H13.427C12.8054 26.708 12.2093 26.4611 11.7697 26.0215C11.3302 25.582 11.0833 24.9859 11.0833 24.3643V16.5518ZM13.427 15.7705C13.2198 15.7705 13.0211 15.8528 12.8746 15.9993C12.7281 16.1458 12.6458 16.3446 12.6458 16.5518V17.333H13.427C13.6342 17.333 13.8329 17.2507 13.9794 17.1042C14.1259 16.9577 14.2083 16.759 14.2083 16.5518V15.7705H13.427ZM12.6458 22.0205H13.427C14.0486 22.0205 14.6447 22.2674 15.0843 22.707C15.5238 23.1465 15.7708 23.7427 15.7708 24.3643V25.1455H24.1041V24.3643C24.1041 23.7427 24.351 23.1465 24.7906 22.707C25.2301 22.2674 25.8262 22.0205 26.4478 22.0205H27.2291V18.8955H26.4478C25.8262 18.8955 25.2301 18.6486 24.7906 18.209C24.351 17.7695 24.1041 17.1734 24.1041 16.5518V15.7705H15.7708V16.5518C15.7708 16.8595 15.7101 17.1643 15.5923 17.4487C15.4746 17.733 15.3019 17.9914 15.0843 18.209C14.8666 18.4267 14.6083 18.5993 14.3239 18.7171C14.0396 18.8349 13.7348 18.8955 13.427 18.8955H12.6458V22.0205ZM27.2291 17.333V16.5518C27.2291 16.3446 27.1468 16.1458 27.0003 15.9993C26.8537 15.8528 26.655 15.7705 26.4478 15.7705H25.6666V16.5518C25.6666 16.983 26.0166 17.333 26.4478 17.333H27.2291ZM27.2291 23.583H26.4478C26.2406 23.583 26.0419 23.6653 25.8954 23.8118C25.7489 23.9583 25.6666 24.1571 25.6666 24.3643V25.1455H26.4478C26.655 25.1455 26.8537 25.0632 27.0003 24.9167C27.1468 24.7702 27.2291 24.5715 27.2291 24.3643V23.583ZM12.6458 24.3643C12.6458 24.7955 12.9958 25.1455 13.427 25.1455H14.2083V24.3643C14.2083 24.1571 14.1259 23.9583 13.9794 23.8118C13.8329 23.6653 13.6342 23.583 13.427 23.583H12.6458V24.3643ZM13.5843 28.2705C13.8586 28.7458 14.2532 29.1404 14.7285 29.4147C15.2037 29.689 15.7428 29.8333 16.2916 29.833H26.9687C27.6184 29.833 28.2618 29.705 28.8622 29.4564C29.4625 29.2077 30.0079 28.8433 30.4674 28.3838C30.9268 27.9243 31.2913 27.3789 31.5399 26.7786C31.7886 26.1783 31.9166 25.5349 31.9166 24.8851V19.4163C31.9168 18.8676 31.7724 18.3285 31.4982 17.8533C31.2239 17.3781 30.8293 16.9834 30.3541 16.709V24.8851C30.3541 25.783 29.9974 26.6441 29.3625 27.2789C28.7276 27.9138 27.8665 28.2705 26.9687 28.2705H13.5843Z" fill="#080808"/>
<defs>
<radialGradient id="paint0_radial_11710_94442" cx="0" cy="0" r="1" gradientUnits="userSpaceOnUse" gradientTransform="translate(38.8049 41.6769) rotate(-131.333) scale(48.2357 52.1272)">
<stop stop-color="#FD5454"/>
<stop offset="0.291667" stop-color="#FF9061"/>
<stop offset="0.533346" stop-color="#FFBA7B"/>
<stop offset="1" stop-color="#FFCEC4"/>
</radialGradient>
</defs>
</svg>
