<svg width="247" height="180" viewBox="0 0 247 180" fill="none" xmlns="http://www.w3.org/2000/svg">
<mask id="mask0_2319_20943" style="mask-type:alpha" maskUnits="userSpaceOnUse" x="0" y="0" width="247" height="180">
<path d="M0 8C0 3.58172 3.58172 0 8 0H247V180H8.00001C3.58173 180 0 176.418 0 172V8Z" fill="white"/>
</mask>
<g mask="url(#mask0_2319_20943)">
<path d="M149.941 86.543C149.973 60.9827 142.774 35.9354 129.175 14.2988C115.576 -7.33789 96.1328 -24.6796 73.0956 -35.7203C50.0584 -46.7609 24.3682 -51.0492 -1.00295 -48.0891C-26.3741 -45.129 -50.3893 -35.0414 -70.2703 -18.9934L-70.3902 -19.1476C-124.45 20.1608 -143.166 91.5465 -114.912 150.629C-107.096 166.966 -96.1403 181.603 -82.6712 193.703C-69.2022 205.803 -53.4833 215.13 -36.412 221.151C-19.3407 227.172 -1.2515 229.769 16.8229 228.794C34.8972 227.819 52.6027 223.291 68.9283 215.469C79.2025 210.551 87.5589 203.149 95.6755 195.969L98.9975 193.039L98.6721 192.628C114.655 179.955 127.569 163.831 136.447 145.461C145.325 127.09 149.938 106.949 149.941 86.543ZM14.5263 213.344C-10.5357 213.344 -35.0348 205.908 -55.873 191.974C-76.7113 178.041 -92.9527 158.238 -102.543 135.068C-112.134 111.898 -114.644 86.4023 -109.754 61.8053C-104.865 37.2082 -92.7965 14.6144 -75.075 -3.11907C-57.3536 -20.8526 -34.775 -32.9292 -10.1947 -37.8219C14.3857 -42.7145 39.864 -40.2034 63.0182 -30.6061C86.1724 -21.0088 105.963 -4.75641 119.886 16.096C133.81 36.9483 141.242 61.4641 141.242 86.543C141.205 120.16 127.843 152.39 104.087 176.159C80.3301 199.928 48.1206 213.295 14.5263 213.327V213.344Z" fill="#F7F7F7"/>
<path d="M118.587 93.8251H38.106L24.7495 102.119C14.9547 131.249 4.20104 152.051 -0.730583 150.577C-6.53552 148.864 -2.44295 117.763 8.4306 81.1107C19.3041 44.4582 32.7976 16.1507 38.6026 17.8642C43.4999 19.3207 41.3081 41.8536 33.9449 70.8466L47.7809 81.4362H116.276L129.718 72.286C126.098 42.9582 111.449 16.112 88.7505 -2.79144C66.0524 -21.6948 37.0104 -31.2355 7.53239 -29.4725C-21.9456 -27.7096 -49.6453 -14.7754 -69.9319 6.6987C-90.2184 28.1728 -101.568 56.5739 -101.671 86.1244C-101.775 115.675 -90.6251 144.155 -70.4896 165.771C-50.3542 187.387 -22.7459 200.515 6.71906 202.485C36.184 204.455 65.2922 195.119 88.1223 176.375C110.952 157.632 125.789 130.889 129.615 101.587L118.587 93.8251Z" fill="#F7F7F7"/>
</g>
</svg>
