<svg width="11" height="17" viewBox="0 0 11 17" fill="none" xmlns="http://www.w3.org/2000/svg">
<path d="M4 12.4633H1.33333V11.0113H4V12.4633ZM4 9.55925H1.33333V8.10723H4V9.55925ZM4 0.121094V0.847106H1.33333C0.593333 0.847106 0 1.49326 0 2.29913V13.9153C0 14.3004 0.140476 14.6698 0.390524 14.9421C0.640572 15.2144 0.97971 15.3673 1.33333 15.3673H4V16.0934H5.33333V0.121094H4ZM10.6667 5.20318V13.9153C10.6667 14.7212 10.0733 15.3673 9.33332 15.3673H6.66666V13.9153H9.33332V7.38122H6.66666V5.92919H9.66666L6.66666 2.66214V0.847106L10.6667 5.20318ZM7.99999 9.55925H6.66666V8.10723H7.99999V9.55925ZM7.99999 12.4633H6.66666V11.0113H7.99999V12.4633Z" fill="#B4DDC5"/>
</svg>
