<svg width="222" height="106" viewBox="0 0 222 106" fill="none" xmlns="http://www.w3.org/2000/svg">
<path d="M217.743 55.5593C216.458 55.4082 215.21 55.2193 213.924 55.106C213.281 55.0682 212.601 55.106 211.958 55.2949C209.878 56.0126 207.798 56.8059 205.68 57.5992C203.374 58.468 201.067 59.3746 198.685 60.2057C197.286 60.659 195.886 60.6967 194.676 59.9412C194.222 59.6768 193.807 59.2613 193.542 58.8457C193.239 58.3924 192.937 58.3547 192.445 58.5813C191.424 59.0346 190.403 59.4124 189.42 59.9035C186.357 61.4522 183.294 63.0388 180.155 64.5876C178.907 65.192 177.659 65.8342 176.222 65.8342C175.277 65.8342 174.407 65.6831 173.764 65.0787C173.046 64.3987 172.97 63.0766 173.651 62.17C174.899 60.6212 176.222 59.1102 177.47 57.5992C177.584 57.4858 177.659 57.3347 177.735 57.1836C177.546 57.2214 177.319 57.2214 177.168 57.297C174.483 58.9213 171.76 60.5834 169.075 62.2833C166.92 63.6432 164.84 65.1165 162.722 66.5897C159.13 69.0829 155.5 71.6138 151.794 74.1448C149.033 76.0336 146.235 77.9979 143.323 79.8489C141.13 81.2466 138.861 82.6065 136.479 83.8153C134.21 85.0241 131.79 85.9307 129.18 86.0441C126.117 86.1574 124.34 85.0997 123.773 82.9087C123.433 81.6621 123.697 80.3022 124.189 78.9801C124.34 78.5645 124.454 78.1868 124.567 77.7712C124.605 77.6201 124.567 77.469 124.605 77.3179C124.416 77.3935 124.227 77.3935 124.075 77.5068C123.319 77.9601 122.563 78.5267 121.769 78.9423C119.84 79.8867 117.874 80.9066 115.832 81.6621C114.054 82.3043 112.617 81.3221 112.882 79.9244C112.958 79.4711 113.222 79.1312 113.752 78.8667C115.643 77.9601 117.571 77.0913 119.386 76.0336C121.353 74.9003 123.206 73.6537 125.059 72.4071C126.458 71.5005 127.857 70.5561 129.218 69.574C129.596 69.3095 129.937 68.9318 130.201 68.554C131.071 67.3452 131.828 66.0609 132.735 64.8898C134.626 62.51 136.554 60.1679 138.445 57.8636C139.731 56.3148 140.979 54.766 142.302 53.2928C143.777 51.6684 145.328 50.0818 146.84 48.4953C147.937 47.362 148.996 46.191 150.092 45.0577C151.491 43.5845 152.891 42.1112 154.328 40.7135C156.899 38.2204 159.433 35.7272 162.004 33.3095C163.025 32.3652 164.046 31.4208 165.105 30.5142C168.319 27.7943 171.458 25.0367 174.672 22.468C177.47 20.2392 180.382 18.1994 183.218 16.1595C186.017 14.1952 188.853 12.3064 191.651 10.4554C192.861 9.66212 194.185 8.98216 195.433 8.26443C195.697 8.11333 195.962 7.88667 196.227 7.73557C197.512 7.01784 198.76 6.3001 200.008 5.65792C202.882 4.1469 205.718 2.71144 208.706 1.5404C210.105 1.01154 211.504 0.482686 212.903 0.0671563C213.508 -0.0839454 214.189 0.0671563 214.87 0.0671563C215.096 0.0671563 215.361 0.0671564 215.588 0.142707C216.496 0.444911 217.101 1.35152 217.214 2.33368C217.328 3.35362 216.874 4.22246 216.42 5.09129C215.361 7.13116 213.886 8.98216 212.222 10.6821C210.105 12.873 207.949 15.064 205.68 17.1794C203.487 19.1815 201.143 21.1081 198.76 23.0346C195.924 25.3012 193.012 27.5299 190.063 29.7964C188.021 31.3452 185.903 32.8562 183.823 34.405C181.97 35.7649 180.117 37.1626 178.227 38.5226C177.092 39.3536 175.882 40.1091 174.748 40.9402C173.538 41.809 172.328 42.7156 171.08 43.6222C169.416 44.8311 167.676 46.0399 165.975 47.2865C164.5 48.3819 163.025 49.5152 161.512 50.6485C159.849 51.8951 158.147 53.1039 156.445 54.3505C153.836 56.2392 151.189 58.2036 148.542 60.1301C145.668 62.2455 142.756 64.361 139.769 66.5142C137.538 68.1385 135.231 69.7628 132.962 71.425C132.622 71.6894 132.395 72.0671 132.206 72.4071C131.222 74.1448 130.201 75.8447 129.37 77.6201C128.802 78.8667 128.424 80.1511 128.122 81.4355C127.895 82.3421 128.311 82.6443 129.407 82.5687C130.807 82.4932 132.13 82.0021 133.378 81.3599C135.496 80.3022 137.575 79.2067 139.58 77.9979C141.508 76.8646 143.285 75.5803 145.138 74.3715C146.349 73.5782 147.596 72.7849 148.807 71.9538C150.546 70.7828 152.285 69.6117 154.025 68.4029C156.445 66.7408 158.828 65.0031 161.248 63.3788C163.479 61.8678 165.748 60.3945 167.979 58.9591C169.454 58.0147 170.928 57.0325 172.441 56.1637C175.353 54.4638 178.189 52.7639 181.29 51.5551C182.273 51.1773 183.256 51.0262 184.277 51.1773C184.958 51.2907 185.185 51.8195 185.412 52.3484C185.601 52.8017 185.525 53.255 185.26 53.7461C184.126 55.8993 182.386 57.6369 180.647 59.4501C180.269 59.8279 179.928 60.2057 179.55 60.5834C179.475 60.659 179.437 60.8101 179.361 60.9234C179.512 60.8856 179.626 60.8856 179.777 60.8478C181.138 60.1679 182.424 59.4502 183.785 58.8457C186.47 57.5992 189.117 56.2015 191.916 55.3704C192.899 55.0682 193.882 55.0304 194.79 55.3704C195.546 55.6348 196 56.2015 196.227 56.9192C196.34 57.3347 196.567 57.3347 196.945 57.2592C199.403 56.8059 201.596 55.7104 203.865 54.8038C206.134 53.8972 208.403 52.915 210.71 52.3106C212.26 51.8951 213.697 52.1217 215.172 52.4239C216.722 52.7261 218.311 52.8395 219.861 53.0661C220.239 53.1039 220.693 53.2172 220.882 53.4816C221.222 53.9727 220.882 54.426 220.201 54.8038C219.407 55.2193 218.613 55.3326 217.781 55.3326C217.781 55.4837 217.743 55.5215 217.743 55.5593ZM214.151 2.18258C214 2.18258 213.886 2.22036 213.735 2.22036C211.769 2.40923 209.991 3.08919 208.252 3.92025C205.945 5.01574 203.638 6.18678 201.332 7.43337C199.517 8.41553 197.701 9.43547 195.962 10.5687C193.769 11.9664 191.575 13.4397 189.42 14.9129C187.718 16.0839 186.017 17.255 184.353 18.5393C181.29 20.8814 178.151 23.2991 175.088 25.7922C172.706 27.7188 170.323 29.7209 168.054 31.8363C164.689 34.9339 161.399 38.1448 158.071 41.4313C155.575 43.9244 153.155 46.5687 150.697 49.213C148.542 51.5551 146.386 53.9349 144.269 56.3903C142.643 58.2791 141.054 60.2434 139.466 62.2078C139.391 62.3211 139.315 62.4722 139.239 62.5855C139.391 62.51 139.58 62.4722 139.693 62.3966C141.206 61.3389 142.68 60.2812 144.155 59.2235C146.122 57.8258 148.05 56.3903 149.979 55.0304C152.777 53.0283 155.538 51.1018 158.26 49.1752C160.302 47.7398 162.307 46.3043 164.311 44.9066C165.634 44 166.996 43.0934 168.319 42.1868C169.189 41.6201 170.059 41.0913 170.928 40.5247C172.101 39.7314 173.273 38.9003 174.445 38.0693C175.807 37.1249 177.13 36.1805 178.454 35.2361C180.155 34.0273 181.857 32.8562 183.521 31.6474C185.487 30.212 187.416 28.7387 189.344 27.2655C190.668 26.2833 191.991 25.2634 193.315 24.2812C194.487 23.3746 195.622 22.4302 196.794 21.5236C197.739 20.7681 198.722 20.0126 199.63 19.2193C201.445 17.595 203.26 15.9706 205 14.3085C206.248 13.1375 207.496 12.0042 208.63 10.7576C210.067 9.17104 211.391 7.47114 212.79 5.8468C213.622 4.90241 214.227 3.8447 214.605 2.67366C214.643 2.25813 214.491 2.18258 214.151 2.18258Z" fill="#C1CDF6"/>
<path d="M99.647 12.6839C94.4664 12.6462 89.1344 13.0617 83.7269 14.0061C80.8529 14.4972 77.9034 15.0638 74.9916 15.7815C69.9622 17.0281 64.9706 18.5769 59.9412 20.3146C54.8739 22.09 49.9202 24.2055 45.042 26.5475C39.0672 29.4562 33.2815 32.6672 27.8739 36.3691C25.2647 38.1824 22.8824 40.1089 20.6134 42.111C18.5336 43.962 16.605 45.8886 15.0168 47.9284C13.4286 49.9683 12.4454 52.046 12.105 54.1236C11.9538 54.9547 11.5756 55.8235 10.1765 56.3524C8.7395 56.8812 6.20588 56.7679 6.5084 55.408C6.88655 53.7836 7.34034 52.1215 8.17227 50.4972C9.04202 48.7973 10.1387 47.0974 11.5 45.473C13.126 43.5843 14.9034 41.7333 16.9832 40.0334C19.5924 37.9557 22.126 35.8403 25.1891 34.0648C26.8151 33.1205 28.2143 32.025 29.8025 31.1184C32.6008 29.494 35.3992 27.9452 38.2731 26.472C40.8067 25.1876 43.4916 24.0166 46.1008 22.8833C47.1597 22.43 48.3319 22.09 49.3908 21.6745C50.2605 21.3345 51.0546 20.8812 51.8866 20.5412C57.2563 18.3125 62.7395 16.5748 68.2227 15.0638C70.4538 14.4594 72.6849 13.9305 74.916 13.3639C78.3193 12.4951 81.7227 11.8907 85.0882 11.4751C87.7353 11.1351 90.3445 10.8329 92.9538 10.6818C95.2605 10.5307 97.5294 10.6063 99.7983 10.6063C103.996 10.5685 107.966 11.0974 111.672 11.9662C114.433 12.6084 116.966 13.515 119.084 14.8371C120.672 15.8193 121.996 16.9903 123.017 18.3503C123.811 19.4457 124.643 20.579 125.21 21.75C126.004 23.4122 126.193 25.3009 126.155 27.1897C126.118 29.3807 125.55 31.5717 124.643 33.7626C123.055 37.5402 120.408 41.0911 116.929 44.4153C115.265 46.0019 113.676 47.664 111.861 49.175C109.441 51.1771 106.908 53.1414 104.26 55.068C101.349 57.1834 98.3235 59.1855 95.2605 61.2632C94.0126 62.0942 92.6891 62.8875 91.3655 63.6808C90.9118 63.9452 90.8361 64.1341 91.0252 64.4363C91.9706 65.9095 91.479 67.6094 90.6092 69.3849C90.4202 69.7626 90.3823 70.1782 90.2689 70.5559C90.7227 70.4426 91.2143 70.367 91.6681 70.1782C93.5588 69.3849 95.4496 68.5538 97.3403 67.7605C99.6849 66.7406 101.992 65.6829 104.336 64.7385C105.244 64.3607 106.303 64.1341 107.172 64.0963C108.42 64.0963 109.517 64.3985 109.782 65.4562C110.046 66.514 110.084 66.5139 111.634 66.1362C112.882 65.834 114.13 65.494 115.378 65.1918C115.87 65.0785 116.361 65.0785 116.891 65.0029C117.155 64.9651 117.496 64.8896 117.76 64.7763C118.744 64.2096 119.613 63.643 120.824 63.5675C121.391 63.5297 122.071 63.0764 122.714 62.812C124.038 62.2831 124.681 62.2831 125.097 63.2275C125.286 63.643 125.134 64.0963 124.605 64.4741C124.076 64.8518 123.508 65.154 122.941 65.494C122.828 65.5696 122.714 65.6829 122.601 65.7584C122.714 65.7962 122.828 65.7962 122.941 65.834C123.471 65.8718 124 65.9095 124.529 65.9851C125.21 66.0984 125.134 66.6273 125.021 67.0806C124.945 67.6094 124.416 67.8739 123.887 68.1005C123.508 68.2894 123.092 68.4783 122.752 68.7427C121.958 69.2716 121.05 69.4227 120.181 69.536C118.971 69.6871 117.836 69.6871 117.042 69.0071C116.777 68.7805 116.172 68.8183 115.794 68.6671C115.492 68.5538 115.227 68.4405 115.038 68.2516C114.811 68.0627 114.622 68.025 114.168 68.1761C113.034 68.5916 111.861 69.0449 110.727 69.2716C108.458 69.6871 106.983 69.0449 106.303 67.6094C106.151 67.2317 105.849 67.2695 105.395 67.4206C103.164 68.1005 101.046 69.1205 98.9286 70.1782C96.6218 71.3114 94.2773 72.4447 91.895 73.5402C89.5882 74.5601 86.7899 74.2579 85.9202 73.0113C85.2395 71.9536 85.5798 70.7448 86.1849 69.4982C86.6008 68.6294 86.8655 67.7983 87.2059 66.9295C87.2437 66.8162 87.1681 66.665 87.1302 66.5517C86.9412 66.6273 86.7143 66.6651 86.5252 66.7784C82.6681 69.0449 78.8109 71.4248 74.8025 73.6913C70.9454 75.92 66.9748 78.0732 62.9664 80.2642C59.6008 82.1152 56.1975 84.004 52.7185 85.855C49.9202 87.366 47.0462 88.8392 44.1344 90.3125C40.0504 92.3901 35.9286 94.5055 31.6933 96.5076C25.7563 99.2653 19.6303 101.872 13.1639 103.798C10.1387 104.705 7.07563 105.536 4.20168 105.498C2.9916 105.46 1.63025 105.347 0.87395 104.894C0.117647 104.44 -0.336134 103.647 0.306723 102.552C0.798319 101.758 0.987395 100.965 1.44118 100.21C2.34874 98.6231 4.05042 97.2254 5.63866 95.8277C8.62605 93.2212 12.1429 90.9169 15.584 88.7259C18.4958 86.8749 21.6345 85.2506 24.6975 83.5507C26.8151 82.3796 28.9328 81.2086 31.126 80.1887C35.2101 78.2621 39.2563 76.3733 43.3403 74.6357C46.5546 73.2757 49.8445 72.1425 53.0588 70.9714C55.6302 70.0271 58.2017 69.1582 60.7731 68.3272C64.4412 67.1184 68.1092 65.9851 71.7773 65.2296C73.6302 64.8518 75.4832 64.323 77.3361 63.9452C80.3235 63.3786 83.2353 63.0008 86.0714 63.0386C86.2605 63.0386 86.5252 62.9253 86.6765 62.8497C89.5882 61.0365 92.5 59.2611 95.2983 57.4478C98.0588 55.6346 100.744 53.7458 103.353 51.8949C105.055 50.686 106.718 49.4772 108.269 48.1929C109.933 46.8329 111.597 45.3975 113.071 43.962C115.378 41.6577 117.685 39.3912 119.273 36.8602C120.181 35.4248 121.013 33.9515 121.655 32.4783C123.319 28.5496 123.508 24.8099 121.807 21.4101C120.861 19.4835 119.235 17.9347 117.08 16.7259C113.147 14.5349 108.345 13.5528 103.05 13.2128C102.445 13.175 101.878 13.1372 101.273 13.0995C100.819 12.7217 100.252 12.7217 99.647 12.6839ZM7.83193 101.418C7.90756 101.418 8.2479 101.381 8.55042 101.267C11.5378 100.361 14.5252 99.6808 17.3613 98.5475C21.4454 96.961 25.5672 95.4877 29.4244 93.5612C31.9958 92.2768 34.6429 91.1435 37.1765 89.9347C39.1429 88.9903 40.9958 87.9704 42.9244 86.9882C43.4538 86.7238 43.9832 86.4216 44.5126 86.1194C46.5168 85.0995 48.521 84.1173 50.4874 83.0974C51.8109 82.4174 53.0588 81.6619 54.3445 80.9819C56.8781 79.622 59.4496 78.2621 61.9454 76.9022C63.7605 75.92 65.5378 74.9001 67.3529 73.9179C67.8067 73.6913 68.3361 73.578 68.7521 73.3135C69.6975 72.7469 70.5672 72.1425 71.4748 71.5759C74.3487 69.9137 77.2227 68.2516 80.021 66.6273C80.1345 66.5517 80.2101 66.4384 80.3235 66.3628C80.1723 66.3251 80.0588 66.2873 79.9076 66.2873C79.4538 66.3251 79.0378 66.4006 78.584 66.4762C74.5378 67.1561 70.4916 68.2516 66.4076 69.4604C61.0378 71.0092 55.6681 72.9735 50.2605 75.089C42.0168 78.2621 33.8487 82.0397 25.8319 86.4972C21.105 89.1414 16.4538 92.0124 12.2563 95.2611C10.1765 96.8854 8.13445 98.5475 6.73529 100.436C6.05462 101.456 6.16807 101.57 7.83193 101.418Z" fill="#C1CDF6"/>
<path d="M26.1724 53.0657C25.2648 55.5211 24.3573 58.0143 23.4875 60.5075C22.4287 63.4918 21.4455 66.5138 20.2732 69.5358C18.9119 72.9734 17.3237 76.4487 15.8867 79.9618C15.3951 81.1707 15.0548 82.3795 14.6388 83.5883C14.5253 83.8905 14.4875 84.1549 14.3741 84.4571C14.0716 85.2882 13.3909 85.7037 12.2186 85.817C10.4413 86.0059 9.87409 85.7037 9.72283 84.5705C9.38249 82.3039 10.4035 79.8863 11.5001 77.4687C11.9917 76.411 12.4455 75.3532 12.8615 74.2955C13.9203 71.8024 15.0169 69.2714 15.9623 66.816C17.248 63.3029 18.3825 59.7898 19.5926 56.3144C20.0842 54.9545 20.4623 53.5946 21.0674 52.2347C21.2943 51.668 21.8993 51.1014 22.4287 50.6103C22.6178 50.4214 23.185 50.3459 23.5632 50.2703C25.3405 50.0059 26.664 50.8748 26.3237 52.0458C26.2102 52.4235 26.059 52.7635 25.9077 53.1413C26.0211 53.0657 26.0968 53.0657 26.1724 53.0657Z" fill="#C1CDF6"/>
</svg>
