<svg width="35" height="37" viewBox="0 0 35 37" fill="none" xmlns="http://www.w3.org/2000/svg">
<path d="M13.4843 0C12.0635 0 10.701 0.556886 9.69632 1.54815C8.69169 2.53941 8.1273 3.88386 8.1273 5.28571V11.1185C9.00284 10.874 9.89953 10.7103 10.8058 10.6296V5.28571C10.8058 4.58478 11.088 3.91256 11.5903 3.41693C12.0926 2.9213 12.7739 2.64286 13.4843 2.64286H21.5198V9.25C21.5198 10.3014 21.9431 11.3097 22.6966 12.0532C23.45 12.7966 24.472 13.2143 25.5375 13.2143H32.2338V31.7143C32.2338 32.4152 31.9516 33.0874 31.4493 33.5831C30.947 34.0787 30.2657 34.3571 29.5553 34.3571H23.5099C22.6691 35.3611 21.6962 36.2499 20.6171 37H29.5553C30.9761 37 32.3386 36.4431 33.3433 35.4518C34.3479 34.4606 34.9123 33.1161 34.9123 31.7143V11.6656C34.9114 10.6145 34.4874 9.60688 33.7338 8.86414L25.9286 1.16021C25.1754 0.417523 24.1542 0.000224329 23.0894 0H13.4843ZM31.6793 10.5714H25.5375C25.1824 10.5714 24.8417 10.4322 24.5905 10.1844C24.3394 9.93657 24.1983 9.60046 24.1983 9.25V3.18993L31.6793 10.5714ZM24.1983 25.1071C24.1983 28.2613 22.9284 31.2863 20.668 33.5167C18.4076 35.747 15.3418 37 12.145 37C8.94833 37 5.88253 35.747 3.62211 33.5167C1.36169 31.2863 0.0917969 28.2613 0.0917969 25.1071C0.0917969 21.953 1.36169 18.928 3.62211 16.6976C5.88253 14.4673 8.94833 13.2143 12.145 13.2143C15.3418 13.2143 18.4076 14.4673 20.668 16.6976C22.9284 18.928 24.1983 21.953 24.1983 25.1071ZM13.4843 19.8214C13.4843 19.471 13.3432 19.1349 13.092 18.887C12.8409 18.6392 12.5002 18.5 12.145 18.5C11.7899 18.5 11.4492 18.6392 11.1981 18.887C10.9469 19.1349 10.8058 19.471 10.8058 19.8214V23.7857H6.78805C6.43286 23.7857 6.09221 23.9249 5.84105 24.1728C5.5899 24.4206 5.4488 24.7567 5.4488 25.1071C5.4488 25.4576 5.5899 25.7937 5.84105 26.0415C6.09221 26.2894 6.43286 26.4286 6.78805 26.4286H10.8058V30.3929C10.8058 30.7433 10.9469 31.0794 11.1981 31.3272C11.4492 31.5751 11.7899 31.7143 12.145 31.7143C12.5002 31.7143 12.8409 31.5751 13.092 31.3272C13.3432 31.0794 13.4843 30.7433 13.4843 30.3929V26.4286H17.502C17.8572 26.4286 18.1979 26.2894 18.449 26.0415C18.7002 25.7937 18.8413 25.4576 18.8413 25.1071C18.8413 24.7567 18.7002 24.4206 18.449 24.1728C18.1979 23.9249 17.8572 23.7857 17.502 23.7857H13.4843V19.8214Z" fill="white"/>
</svg>
