<svg width="25" height="22" viewBox="0 0 25 22" fill="none" xmlns="http://www.w3.org/2000/svg">
<path d="M18.7085 16.1562C18.6597 16.1562 18.6108 16.152 18.562 16.1455L14.4556 15.5117C14.4067 15.5031 14.3604 15.4838 14.3262 15.4516L3.97705 6.34434C3.95442 6.32446 3.93646 6.30085 3.92421 6.27486C3.91196 6.24887 3.90565 6.22101 3.90565 6.19287C3.90565 6.16473 3.91196 6.13687 3.92421 6.11088C3.93646 6.08489 3.95442 6.06128 3.97705 6.04141L8.03467 2.46855C8.08105 2.42773 8.14209 2.40625 8.20801 2.40625C8.27393 2.40625 8.33496 2.42773 8.38135 2.46855L18.7305 11.5758C18.7671 11.608 18.7891 11.6467 18.7988 11.6896L19.519 15.3033C19.5428 15.4184 19.5343 15.5369 19.4943 15.6484C19.4543 15.76 19.384 15.8613 19.2896 15.9436C19.1284 16.0811 18.9258 16.1562 18.7085 16.1562ZM17.063 12.4094L8.20801 4.61914L6.41846 6.19394L15.2734 13.9842L17.4438 14.3215L17.063 12.4094ZM3.51562 17.9609H21.4844C21.9165 17.9609 22.2656 18.2682 22.2656 18.6484V19.4219C22.2656 19.5164 22.1777 19.5938 22.0703 19.5938H2.92969C2.82227 19.5938 2.73438 19.5164 2.73438 19.4219V18.6484C2.73438 18.2682 3.0835 17.9609 3.51562 17.9609Z" fill="#6DE7B4"/>
</svg>
