<svg width="24" height="24" viewBox="0 0 24 24" fill="none" xmlns="http://www.w3.org/2000/svg">
<path d="M18.5303 7.46985C18.4318 7.37135 18.3079 7.3022 18.1724 7.27014C18.0369 7.23809 17.8952 7.24439 17.763 7.28835L11.013 9.53835C10.9025 9.5752 10.802 9.63729 10.7196 9.71969C10.6372 9.80209 10.5751 9.90255 10.5383 10.0131L8.28828 16.7631C8.24421 16.8952 8.23781 17.0371 8.26981 17.1726C8.3018 17.3082 8.37092 17.4322 8.46943 17.5307C8.56793 17.6292 8.69192 17.6983 8.82749 17.7303C8.96307 17.7623 9.10488 17.7559 9.23703 17.7118L15.987 15.4618C16.0976 15.425 16.198 15.3629 16.2804 15.2805C16.3628 15.1981 16.4249 15.0976 16.4618 14.9871L18.7118 8.2371C18.7557 8.10497 18.762 7.96321 18.73 7.8277C18.6979 7.69219 18.6288 7.56828 18.5303 7.46985ZM10.1858 15.8151L11.8433 10.8441L15.1575 14.1583L10.1858 15.8151Z" fill="#4C5B8F"/>
<path d="M13.5 23C11.4233 23 9.39323 22.3842 7.66652 21.2304C5.9398 20.0767 4.59399 18.4368 3.79927 16.5182C3.00455 14.5996 2.79661 12.4884 3.20176 10.4516C3.6069 8.41476 4.60693 6.54384 6.07538 5.07538C7.54384 3.60693 9.41476 2.6069 11.4516 2.20176C13.4884 1.79661 15.5996 2.00455 17.5182 2.79927C19.4368 3.59399 21.0767 4.9398 22.2304 6.66652C23.3842 8.39323 24 10.4233 24 12.5C23.9968 15.2838 22.8896 17.9527 20.9211 19.9211C18.9527 21.8896 16.2838 22.9968 13.5 23ZM13.5 3.50001C11.72 3.50001 9.97992 4.02785 8.49987 5.01678C7.01983 6.00571 5.86628 7.41132 5.18509 9.05586C4.5039 10.7004 4.32567 12.51 4.67294 14.2558C5.0202 16.0016 5.87737 17.6053 7.13604 18.864C8.39472 20.1226 9.99836 20.9798 11.7442 21.3271C13.49 21.6743 15.2996 21.4961 16.9442 20.8149C18.5887 20.1337 19.9943 18.9802 20.9832 17.5001C21.9722 16.0201 22.5 14.28 22.5 12.5C22.4972 10.1139 21.5481 7.82634 19.8609 6.13911C18.1737 4.45189 15.8861 3.50278 13.5 3.50001Z" fill="#4C5B8F"/>
</svg>
