<svg width="31" height="31" viewBox="0 0 31 31" fill="none" xmlns="http://www.w3.org/2000/svg">
<path d="M6.57617 10.1985C6.57617 9.75341 6.937 9.39258 7.3821 9.39258H23.0765C23.5216 9.39258 23.8824 9.7534 23.8824 10.1985V15.7976C23.8824 16.2427 23.5216 16.6035 23.0765 16.6035H7.3821C6.937 16.6035 6.57617 16.2427 6.57617 15.7976V10.1985Z" fill="#081952"/>
<path fill-rule="evenodd" clip-rule="evenodd" d="M7.78507 10.6015V15.3946H22.6735V10.6015H7.78507ZM7.3821 9.39258C6.937 9.39258 6.57617 9.75341 6.57617 10.1985V15.7976C6.57617 16.2427 6.937 16.6035 7.3821 16.6035H23.0765C23.5216 16.6035 23.8824 16.2427 23.8824 15.7976V10.1985C23.8824 9.7534 23.5216 9.39258 23.0765 9.39258H7.3821Z" fill="#FF4A67"/>
<path fill-rule="evenodd" clip-rule="evenodd" d="M8.74023 13.1142C8.74023 12.7804 9.01085 12.5098 9.34468 12.5098H21.07C21.4039 12.5098 21.6745 12.7804 21.6745 13.1142C21.6745 13.448 21.4039 13.7187 21.07 13.7187H9.34468C9.01085 13.7187 8.74023 13.448 8.74023 13.1142Z" fill="#FF4A67"/>
<path d="M10.3926 12.6172H15.2282H20.0637V22.2883C20.0637 22.7334 19.7029 23.0943 19.2578 23.0943H11.1985C10.7534 23.0943 10.3926 22.7334 10.3926 22.2883V12.6172Z" fill="#081952"/>
<path fill-rule="evenodd" clip-rule="evenodd" d="M18.8548 21.8854V13.8261H11.6015V21.8854H18.8548ZM10.3926 12.6172V22.2883C10.3926 22.7334 10.7534 23.0943 11.1985 23.0943H19.2578C19.7029 23.0943 20.0637 22.7334 20.0637 22.2883V12.6172H10.3926Z" fill="#FF4A67"/>
<circle cx="15.229" cy="17.4537" r="1.61186" fill="#FF4A67"/>
<circle cx="15.5" cy="15.5" r="15" stroke="#FF4A67"/>
</svg>
