<svg width="17" height="22" viewBox="0 0 17 22" fill="none" xmlns="http://www.w3.org/2000/svg">
<path d="M10.565 7.05444L10.0189 7.54897C9.80182 8.97736 9.47736 10.0262 9.23515 9.99862C8.9541 9.96642 8.89241 8.49203 9.09806 6.70712C9.3037 4.9222 9.69443 3.50302 9.97548 3.53522C10.204 3.56282 10.2931 4.62089 10.1903 6.02627L10.9123 6.4035L14.7145 5.73186C14.4111 4.3389 13.5795 3.12019 12.3968 2.33524C11.2141 1.55029 9.77374 1.26111 8.38239 1.5293C6.99105 1.79748 5.75867 2.60183 4.94768 3.77107C4.13669 4.9403 3.81117 6.38205 4.04043 7.78929C4.26969 9.19653 5.03563 10.4581 6.17513 11.3053C7.31464 12.1525 8.73768 12.5185 10.1412 12.3253C11.5448 12.132 12.818 11.3949 13.6897 10.2708C14.5613 9.14667 14.9627 7.72442 14.8082 6.30689L10.565 7.05444Z" fill="#57CE9C"/>
<path d="M16.1836 5.70422C15.9523 4.38124 15.3424 3.155 14.4288 2.17592C13.5151 1.19685 12.3374 0.507502 11.0402 0.192458C9.74299 -0.122586 8.38262 -0.0496311 7.12599 0.402373C5.86937 0.854377 4.77112 1.66577 3.96598 2.73703C2.89559 4.03895 2.33285 5.68873 2.38296 7.37796C2.43308 9.06718 3.09262 10.6802 4.23829 11.9155C5.38396 13.1508 6.93733 13.9238 8.60801 14.09C10.2787 14.2562 11.9523 13.8042 13.316 12.8186C13.6931 12.5116 14.024 12.1514 14.2985 11.749C15.0695 10.9662 15.643 10.0089 15.971 8.95726C16.299 7.90557 16.3719 6.7901 16.1836 5.70422V5.70422ZM15.3131 5.85832C15.5172 7.02965 15.3717 8.23561 14.895 9.3237C14.4183 10.4118 13.6317 11.3331 12.6348 11.9712C11.6379 12.6093 10.4754 12.9354 9.29436 12.9084C8.1133 12.8814 6.96673 12.5024 5.99964 11.8194C5.03255 11.1364 4.28839 10.1801 3.86126 9.07129C3.43412 7.96252 3.34321 6.75115 3.60002 5.59038C3.85683 4.4296 4.44981 3.37155 5.30399 2.55004C6.15817 1.72853 7.23517 1.18045 8.39879 0.975121C9.95879 0.701087 11.5631 1.06139 12.8594 1.97693C14.1557 2.89247 15.0382 4.28843 15.3131 5.85832V5.85832Z" fill="#57CE9C"/>
<path d="M4.46417 12.3353L3.42223 11.1967L5.3553 9.08056L8.00356 7.70508L8.38744 8.44572L7.55571 11.3945L6.36068 12.6228L8.36459 13.5497L9.68072 15.2887L10.0509 17.9798L3.91578 21.0758L3.74669 19.9464L2.4694 17.7314L1.83875 14.9919L1.28579 12.6389L1.15784 11.5072L2.21806 9.55669L3.35825 8.42732L4.30194 10.0121L3.17545 11.3531L4.46417 12.3353Z" fill="white"/>
<path d="M10.0509 18.4237H10.0349C9.97692 18.4219 9.91983 18.4086 9.86697 18.3844C9.81411 18.3603 9.76654 18.3258 9.72701 18.283C9.68748 18.2402 9.65677 18.19 9.63668 18.1351C9.61658 18.0803 9.60749 18.022 9.60994 17.9636C9.59764 17.4997 9.54411 17.0379 9.44999 16.5836C9.28548 15.6635 8.70281 14.7434 7.6723 13.8027C7.02337 13.2047 6.65549 13.0206 6.52982 13.0482H6.48641C6.38866 13.0676 6.28731 13.0542 6.1978 13.0102C6.1083 12.9662 6.03553 12.8939 5.99057 12.8044C5.83976 12.4893 6.08882 12.2685 6.21907 12.1627C6.47089 11.9477 6.69435 11.7011 6.88399 11.4289C7.62203 10.3226 7.70657 9.89705 7.93964 8.75848C7.98246 8.58322 8.00168 8.40296 7.99676 8.22255C7.70551 8.29652 7.42622 8.41192 7.16732 8.56527C6.08654 9.1334 4.9692 10.1915 4.22887 10.893L4.03008 11.0793C3.9582 11.1425 3.89517 11.2153 3.84271 11.2955C3.92637 11.3263 3.99927 11.381 4.05245 11.4529C4.10562 11.5249 4.13677 11.6109 4.14204 11.7004L4.1946 13.3358L4.48707 16.181C4.49093 16.294 4.45207 16.4042 4.37835 16.4894C4.30462 16.5746 4.20152 16.6285 4.08986 16.6402C3.9782 16.6519 3.8663 16.6205 3.77674 16.5523C3.68719 16.4842 3.62665 16.3844 3.60736 16.273L3.31489 13.4002C3.31367 13.3902 3.31367 13.3802 3.31489 13.3703L3.26462 11.9902C3.11002 11.8784 2.99925 11.7156 2.95158 11.5302C2.87161 11.1828 3.02927 10.8171 3.42457 10.4468L3.62107 10.2605C4.39567 9.52673 5.56786 8.42036 6.75603 7.79472C7.53063 7.38759 8.127 7.18288 8.55201 7.5026C8.97701 7.82232 8.90389 8.44336 8.80107 8.95399C8.54058 10.2444 8.40805 10.7504 7.61517 11.9442C7.5089 12.1057 7.39131 12.2595 7.26329 12.4042C7.62698 12.6229 7.96501 12.8821 8.27096 13.1771C9.44999 14.265 10.1195 15.3369 10.3274 16.4548C10.4336 16.9703 10.4917 17.4947 10.5011 18.0212C10.4907 18.1332 10.4384 18.2371 10.3549 18.3118C10.2713 18.3865 10.1627 18.4265 10.0509 18.4237Z" fill="#57CE9C"/>
<path d="M4.18071 21.1935C4.10689 21.1935 4.03426 21.1747 3.96955 21.1389C3.90484 21.1032 3.85016 21.0515 3.81055 20.9888C3.34393 20.2667 2.91529 19.5204 2.52641 18.7531C2.32977 18.2891 2.18197 17.8058 2.08541 17.3109C1.9119 16.5143 1.68284 15.7311 1.39992 14.967C0.725862 13.1062 0.764707 12.6232 0.851535 12.4507C0.817261 12.2045 0.778416 11.9561 0.757852 11.8066L0.721292 11.5766C0.661884 11.1718 0.974922 10.6128 2.01458 9.27647L2.18823 9.04645C2.38649 8.78007 2.62559 8.54714 2.89657 8.35641C2.99383 8.29083 3.11299 8.26683 3.22783 8.28969C3.34268 8.31256 3.44379 8.38041 3.50894 8.47832C3.57408 8.57623 3.59792 8.69618 3.57521 8.81178C3.5525 8.92739 3.4851 9.02918 3.38783 9.09475C3.20248 9.22293 3.03695 9.37794 2.89657 9.55478L2.7092 9.7986C2.02372 10.6796 1.64898 11.2316 1.59872 11.4455L1.6307 11.6433C1.66726 11.8917 1.71753 12.239 1.75866 12.5243C1.80869 12.76 1.82026 13.0024 1.79294 13.2419C1.87976 13.5662 2.02143 14.0286 2.24993 14.622C2.54385 15.4334 2.77905 16.2652 2.95369 17.1108C3.03481 17.5438 3.15881 17.9676 3.32386 18.3758C3.68945 19.1602 4.54402 20.4943 4.55316 20.5081C4.59685 20.5755 4.62161 20.6535 4.62483 20.734C4.62804 20.8144 4.60958 20.8942 4.5714 20.9649C4.53323 21.0356 4.47676 21.0947 4.40798 21.1357C4.3392 21.1768 4.26067 21.1983 4.18071 21.1981V21.1935Z" fill="#57CE9C"/>
<path d="M3.38084 21.7953C3.17775 21.8031 2.97826 21.7397 2.81645 21.6159C2.70544 21.5284 2.62394 21.4086 2.58305 21.2727C2.54216 21.1369 2.54387 20.9917 2.58796 20.8569C2.63461 20.708 2.72519 20.577 2.84765 20.4812C2.97011 20.3855 3.11863 20.3296 3.27344 20.3209C3.63904 20.2933 4.64442 20.0541 7.22413 18.789C9.61191 17.6229 10.4368 17.2893 10.4711 17.2755C10.4932 17.2639 10.5161 17.2539 10.5396 17.2456C10.6067 17.1719 10.6965 17.1232 10.7945 17.1072C10.8925 17.0913 10.993 17.1091 11.0797 17.1578C11.1663 17.2065 11.2342 17.2832 11.2722 17.3756C11.3102 17.4679 11.3161 17.5704 11.2891 17.6666C11.2502 17.8115 11.1543 18.1496 9.02468 19.2767C8.09013 19.7643 7.38179 20.0702 6.75572 20.3416C6.02065 20.6434 5.30552 20.9922 4.61471 21.3859C4.24503 21.6265 3.82017 21.7674 3.38084 21.7953V21.7953Z" fill="#57CE9C"/>
<path d="M12.4568 19.0501H12.3997C12.2835 19.0347 12.178 18.9735 12.1065 18.8799C12.035 18.7864 12.0032 18.6681 12.0181 18.551C12.0455 18.3509 12.0775 18.16 12.1118 17.9645C12.2244 17.4264 12.2681 16.876 12.2421 16.3268C12.2009 15.6022 11.8925 15.3561 11.8787 15.3446C11.8306 15.3126 11.7893 15.2713 11.7573 15.2231C11.7252 15.1749 11.703 15.1207 11.6919 15.0638C11.6808 15.0068 11.6812 14.9482 11.6928 14.8914C11.7045 14.8346 11.7273 14.7806 11.7599 14.7328C11.8281 14.6372 11.93 14.5716 12.0447 14.5493C12.1595 14.5271 12.2783 14.5499 12.3769 14.6132C12.4477 14.6592 13.0624 15.0985 13.124 16.2762C13.1526 16.8931 13.105 17.5112 12.9824 18.1163C12.9504 18.2957 12.9184 18.4774 12.8956 18.6637C12.8812 18.7706 12.8288 18.8687 12.7482 18.9397C12.6675 19.0108 12.564 19.05 12.4568 19.0501V19.0501Z" fill="#57CE9C"/>
<path d="M3.37195 8.35938L3.1366 9.04022L4.04372 9.58535L3.37195 8.35938Z" fill="#57CE9C"/>
</svg>
