<svg width="33" height="33" viewBox="0 0 33 33" fill="none" xmlns="http://www.w3.org/2000/svg">
<path d="M26.8125 30.9375H11.3438C10.7969 30.937 10.2726 30.7195 9.88595 30.3328C9.49927 29.9461 9.2818 29.4218 9.28125 28.875V22.6875H11.3438V28.875H26.8125V6.1875H17.5312V4.125H26.8125C27.3593 4.12555 27.8836 4.34302 28.2703 4.7297C28.657 5.11637 28.8745 5.64066 28.875 6.1875V28.875C28.8745 29.4218 28.657 29.9461 28.2703 30.3328C27.8836 30.7195 27.3593 30.937 26.8125 30.9375Z" fill="#FED0B7"/>
<path d="M17.5312 10.3125H24.75V12.375H17.5312V10.3125ZM16.5 15.4688H24.75V17.5312H16.5V15.4688ZM15.4688 20.625H24.75V22.6875H15.4688V20.625ZM9.28125 19.5938C7.91415 19.5924 6.60343 19.0487 5.63674 18.082C4.67005 17.1153 4.12637 15.8046 4.125 14.4375V3.09375H6.1875V14.4375C6.1875 15.258 6.51345 16.0449 7.09364 16.6251C7.67383 17.2053 8.46074 17.5312 9.28125 17.5312C10.1018 17.5312 10.8887 17.2053 11.4689 16.6251C12.0491 16.0449 12.375 15.258 12.375 14.4375V5.15625C12.375 4.88275 12.2664 4.62044 12.073 4.42705C11.8796 4.23365 11.6173 4.125 11.3438 4.125C11.0702 4.125 10.8079 4.23365 10.6145 4.42705C10.4211 4.62044 10.3125 4.88275 10.3125 5.15625V15.4688H8.25V5.15625C8.25 4.33574 8.57595 3.54883 9.15614 2.96864C9.73633 2.38845 10.5232 2.0625 11.3438 2.0625C12.1643 2.0625 12.9512 2.38845 13.5314 2.96864C14.1116 3.54883 14.4375 4.33574 14.4375 5.15625V14.4375C14.4361 15.8046 13.8925 17.1153 12.9258 18.082C11.9591 19.0487 10.6484 19.5924 9.28125 19.5938Z" fill="#FED0B7"/>
</svg>
