<svg width="24" height="24" viewBox="0 0 24 24" fill="none" xmlns="http://www.w3.org/2000/svg">
<path fill-rule="evenodd" clip-rule="evenodd" d="M8.00003 9.5C8.00003 5.36 11.36 2 15.5 2C19.64 2 23 5.36 23 9.5C23 11.9762 21.798 14.1734 19.946 15.5394C19.8416 15.307 19.5888 14.786 19.1921 14.2259C20.596 13.1266 21.5 11.4165 21.5 9.5C21.5 6.1925 18.8075 3.5 15.5 3.5C12.1925 3.5 9.50003 6.1925 9.50003 9.5C9.50003 9.66835 9.50701 9.83511 9.52068 10H8.01646C8.00556 9.83473 8.00003 9.66801 8.00003 9.5ZM19.0408 12.9235C18.8435 13.0771 18.6411 13.2128 18.4323 13.3315C18.1258 13.0357 17.7754 12.7693 17.3817 12.5758C17.1508 12.4622 16.8502 12.3329 16.5026 12.194C17.03 12.0929 17.5494 11.8695 18.1001 11.4345L19.0408 12.9235ZM13.0272 9.50585C13.0348 10.1455 13.1941 10.6792 13.4616 11.1015C12.5592 10.7981 11.6929 10.5188 11.0588 10.3173C11.0235 10.0777 11.0037 9.8268 11.0006 9.56466C10.9669 6.70439 13.0648 5.02253 15.7434 4.99092C16.9197 4.97703 18.0093 5.27815 18.8308 5.86152L17.8527 7.33828C17.1773 6.85785 16.4334 6.70964 15.7637 6.71754C14.1892 6.73613 13.007 7.79666 13.0272 9.50585ZM23 20.2998V19.2998C23 17.6398 21.66 16.2998 20 16.2998H18C18 15.0998 17.25 14.0198 16.13 13.5998L9.97 11.2998H2V22.2998H8V20.8598L15 22.7998L23 20.2998ZM6 13.2998V20.2998H4V13.2998H6ZM20 18.3098C20.39 18.3098 20.74 18.5398 20.9 18.8698L14.97 20.7098L8 18.7798V13.2998H9.61L15.43 15.4698C15.77 15.5998 16 15.9298 16 16.2998C16 16.2998 14.01 16.2498 13.7 16.1498L11.32 15.3598L10.69 17.2598L13.07 18.0498C13.58 18.2198 14.11 18.3098 14.65 18.3098H20Z" fill="#4C5B8F"/>
</svg>
