<svg width="50" height="50" viewBox="0 0 50 50" fill="none" xmlns="http://www.w3.org/2000/svg">
<path fill-rule="evenodd" clip-rule="evenodd" d="M25 0C22.8438 0 19.2406 0.828125 15.85 1.75C12.3813 2.6875 8.88439 3.79687 6.82814 4.46875C5.96843 4.75266 5.20624 5.27333 4.62913 5.97094C4.05203 6.66855 3.68341 7.51481 3.56564 8.4125C1.70314 22.4031 6.02502 32.7719 11.2688 39.6313C13.4925 42.5655 16.1439 45.1495 19.1344 47.2969C20.3406 48.15 21.4594 48.8031 22.4094 49.25C23.2844 49.6625 24.225 50 25 50C25.775 50 26.7125 49.6625 27.5906 49.25C28.7359 48.6933 29.8315 48.0399 30.8656 47.2969C33.8562 45.1495 36.5076 42.5656 38.7313 39.6313C43.975 32.7719 48.2969 22.4031 46.4344 8.4125C46.3168 7.51438 45.9483 6.66763 45.3712 5.96948C44.7941 5.27133 44.0318 4.75009 43.1719 4.46563C40.1869 3.48692 37.1787 2.5804 34.15 1.74688C30.7594 0.83125 27.1563 0 25 0ZM25 15.625C26.107 15.6234 27.1789 16.0135 28.0258 16.7264C28.8726 17.4394 29.4399 18.429 29.627 19.52C29.8142 20.6111 29.6091 21.7332 29.0482 22.6876C28.4873 23.6419 27.6068 24.367 26.5625 24.7344L27.7656 30.9531C27.8094 31.1793 27.8026 31.4124 27.7458 31.6356C27.6889 31.8589 27.5834 32.0668 27.4367 32.2445C27.2901 32.4222 27.106 32.5653 26.8976 32.6635C26.6892 32.7617 26.4616 32.8125 26.2313 32.8125H23.7688C23.5386 32.8121 23.3115 32.7609 23.1034 32.6625C22.8954 32.5641 22.7117 32.4209 22.5654 32.2433C22.4191 32.0657 22.3139 31.8579 22.2572 31.6349C22.2005 31.4118 22.1938 31.1791 22.2375 30.9531L23.4375 24.7344C22.3932 24.367 21.5127 23.6419 20.9518 22.6876C20.3909 21.7332 20.1859 20.6111 20.373 19.52C20.5602 18.429 21.1274 17.4394 21.9743 16.7264C22.8212 16.0135 23.893 15.6234 25 15.625Z" fill="white"/>
</svg>
