<svg width="45" height="28" viewBox="0 0 45 28" fill="none" xmlns="http://www.w3.org/2000/svg">
<path d="M13.8807 28.005C21.5459 28.005 27.7597 21.7368 27.7597 14.0045C27.7597 6.27217 21.5459 0.00390625 13.8807 0.00390625C6.21555 0.00390625 0.00170898 6.27217 0.00170898 14.0045C0.00170898 21.7368 6.21555 28.005 13.8807 28.005Z" fill="#EE0005"/>
<path d="M31.123 28.0031C38.7881 28.0031 45.002 21.7348 45.002 14.0025C45.002 6.27022 38.7881 0.00195312 31.123 0.00195312C23.4578 0.00195312 17.244 6.27022 17.244 14.0025C17.244 21.7348 23.4578 28.0031 31.123 28.0031Z" fill="#F9A000"/>
<path d="M17.244 13.9982C17.2419 16.1089 17.7139 18.1927 18.6244 20.0932C19.535 21.9936 20.8605 23.6612 22.5014 24.9709C24.1414 23.6602 25.4663 21.9924 26.3771 20.0922C27.2879 18.1921 27.761 16.1088 27.761 13.9982C27.761 11.8875 27.2879 9.80424 26.3771 7.90408C25.4663 6.00393 24.1414 4.33611 22.5014 3.02539C20.8605 4.33508 19.535 6.00273 18.6244 7.90316C17.7139 9.80358 17.2419 11.8874 17.244 13.9982Z" fill="#FF6300"/>
</svg>
