<svg width="41" height="73" viewBox="0 0 41 73" fill="none" xmlns="http://www.w3.org/2000/svg">
<g clip-path="url(#clip0_1896_13553)">
<path d="M20.5 72.4566C15.2078 72.4523 10.1336 70.3376 6.39142 66.5767C2.64926 62.8159 0.545046 57.7164 0.540771 52.3978V32.1768C0.540771 26.8569 2.64362 21.7548 6.3867 17.9931C10.1298 14.2313 15.2065 12.118 20.5 12.118C25.7935 12.118 30.8703 14.2313 34.6133 17.9931C38.3564 21.7548 40.4593 26.8569 40.4593 32.1768V52.3978C40.455 57.7164 38.3508 62.8159 34.6086 66.5767C30.8665 70.3376 25.7922 72.4523 20.5 72.4566Z" fill="#139239"/>
<path d="M20.5 12.6614C25.6429 12.6849 30.5685 14.7485 34.2052 18.4033C37.8418 22.058 39.8952 27.0082 39.9185 32.1768V52.3978C39.9057 57.5689 37.8555 62.5244 34.2163 66.1801C30.5772 69.8359 25.6454 71.8943 20.5 71.905C15.3578 71.8837 10.4322 69.8219 6.79535 66.1684C3.1585 62.5149 1.10487 57.5656 1.0815 52.3978V32.1768C1.11325 27.0108 3.16932 22.0656 6.80414 18.4126C10.439 14.7597 15.3597 12.6934 20.5 12.6614ZM20.5 11.5746C17.8073 11.5724 15.1406 12.1039 12.6525 13.1385C10.1644 14.1731 7.90361 15.6905 5.99958 17.6041C4.09556 19.5176 2.58562 21.7896 1.55615 24.2901C0.526683 26.7907 -0.00211638 29.4707 6.36562e-06 32.1768V52.3978C6.32551e-06 55.1033 0.530254 57.7823 1.56048 60.2819C2.5907 62.7815 4.10072 65.0527 6.00432 66.9658C7.90792 68.8788 10.1678 70.3964 12.655 71.4318C15.1422 72.4671 17.8079 73 20.5 73C23.1921 73 25.8578 72.4671 28.345 71.4318C30.8322 70.3964 33.0921 68.8788 34.9957 66.9658C36.8993 65.0527 38.4093 62.7815 39.4395 60.2819C40.4698 57.7823 41 55.1033 41 52.3978V32.1768C40.9872 26.7167 38.8233 21.4839 34.9816 17.623C31.1398 13.7621 25.933 11.5874 20.5 11.5746Z" fill="#080808"/>
<path d="M18.6033 49.8914C19.6196 49.8914 20.4435 49.5247 20.4435 49.0722C20.4435 48.6198 19.6196 48.253 18.6033 48.253C17.587 48.253 16.7632 48.6198 16.7632 49.0722C16.7632 49.5247 17.587 49.8914 18.6033 49.8914Z" fill="#E54B4D"/>
<path d="M18.6034 50.4349C17.2475 50.4349 16.1821 49.8347 16.1821 49.0722C16.1821 48.3098 17.1587 47.7096 18.6034 47.7096C20.0481 47.7096 21.0246 48.3098 21.0246 49.0722C21.0246 49.8347 19.9593 50.4349 18.6034 50.4349ZM17.3524 49.0722C17.7394 49.2685 18.1704 49.3607 18.6034 49.3399C19.0337 49.3601 19.462 49.2678 19.8463 49.0722C19.4639 48.8705 19.0348 48.7753 18.6034 48.7964C18.1693 48.7739 17.7372 48.8691 17.3524 49.0722Z" fill="#080808"/>
<path d="M21.0408 50.3294C22.0571 50.3294 22.881 49.9627 22.881 49.5102C22.881 49.0578 22.0571 48.691 21.0408 48.691C20.0245 48.691 19.2007 49.0578 19.2007 49.5102C19.2007 49.9627 20.0245 50.3294 21.0408 50.3294Z" fill="#E54B4D"/>
<path d="M21.0408 50.8729C19.6849 50.8729 18.6599 50.2727 18.6599 49.5102C18.6599 48.7478 19.6365 48.1476 21.0408 48.1476C22.4451 48.1476 23.4621 48.7397 23.4621 49.5102C23.4621 50.2808 22.4532 50.8729 21.0408 50.8729ZM19.8463 49.4778C20.2337 49.673 20.6644 49.7652 21.0973 49.7454C21.5302 49.7652 21.9609 49.673 22.3483 49.4778C21.9635 49.2747 21.5314 49.1794 21.0973 49.202C20.6632 49.1794 20.2311 49.2747 19.8463 49.4778Z" fill="#080808"/>
<path d="M20.7745 50.2159C18.3532 50.2159 16.1095 48.3098 15.3993 45.5844L15.3347 45.1464L15.7705 45.2519C17.1984 45.5341 18.6494 45.6807 20.1046 45.6899C22.0672 45.6952 24.0208 45.4221 25.9075 44.8788L26.3434 44.7733L26.2385 45.2113C25.6493 48.1476 23.4056 50.2159 20.7745 50.2159ZM16.053 45.8521C16.348 46.8977 16.9626 47.8237 17.8099 48.499C18.6571 49.1744 19.6942 49.565 20.7745 49.6157C21.924 49.5599 23.0227 49.1229 23.8989 48.373C24.7751 47.6231 25.3792 46.6025 25.617 45.4709C23.8118 45.9578 21.9495 46.1978 20.0804 46.1847H20.0158C18.6871 46.2073 17.3596 46.0959 16.053 45.8521Z" fill="#080808"/>
<path d="M10.9522 15.1678C8.29389 16.6884 6.0294 18.8169 4.34212 21.3809C4.50805 21.9721 4.70471 22.5542 4.93129 23.1248C5.2622 23.8386 6.61811 25.2499 6.6746 25.9637C6.6746 26.2313 6.07736 27.156 5.96436 27.5372C5.78604 28.103 5.71219 28.6968 5.74645 29.2892C5.80295 30.3761 6.50511 31.5766 6.45669 32.6067C6.40019 33.4827 5.52854 34.2289 5.10078 35.04C4.45881 36.1014 4.22623 37.3625 4.44704 38.5846C4.64146 39.1523 4.78726 39.7357 4.88287 40.3284C4.84282 40.9355 4.75101 41.5379 4.60846 42.1291C4.44688 43.5206 4.39291 44.9227 4.44704 46.3226C4.60846 48.9911 5.14921 51.6678 4.82637 54.3363C4.50354 57.1671 2.71181 59.349 3.74488 62.2933C5.5994 65.417 8.25981 67.9786 11.4445 69.7069C11.3182 67.278 10.7205 64.8973 9.68503 62.6989C9.14429 61.4985 8.38562 60.736 8.76496 59.3733C9.20222 58.1617 9.56343 56.9237 9.84645 55.6666C10.1061 53.1079 10.0709 50.5277 9.74153 47.9772C9.60312 46.6925 9.5465 45.4002 9.57204 44.1082C9.62854 42.8591 10.0079 41.6019 10.0079 40.3528C10.0748 39.7064 10.0005 39.0531 9.78996 38.4386C9.52362 37.7897 9.46712 38.0087 9.62854 37.4571C9.95137 36.4838 10.9279 35.77 11.2427 34.6831C11.6044 33.5705 11.6409 32.3768 11.3476 31.244C11.1297 30.1571 10.7504 29.6218 11.0813 28.6322C11.509 27.375 11.9449 26.4503 11.622 25.1444C11.3551 24.1134 10.9128 23.1364 10.3146 22.2569C9.12814 20.3427 8.57932 18.5501 10.2096 16.644C10.6211 16.2542 10.8838 15.7319 10.9522 15.1678Z" fill="#5BB174"/>
<path d="M20.5 12.6614C19.5566 12.6516 18.614 12.7249 17.6833 12.8804C17.6268 13.5374 17.5703 14.1863 17.5703 14.8433C17.7356 16.2745 17.989 17.6939 18.329 19.0936C18.3515 20.3559 18.2433 21.6172 18.0061 22.8571C17.9163 24.2398 17.9894 25.6283 18.2241 26.9938C18.6599 29.9381 20.0158 32.5012 20.6453 35.332C21.1941 38.0087 19.7817 40.3528 19.128 42.8591C18.4823 45.5277 18.9101 48.0908 19.6203 50.7026C19.9857 51.8854 20.2079 53.1082 20.2821 54.3444C20.1607 55.5869 19.8533 56.8038 19.3701 57.9539C18.4985 60.517 18.8294 63.3478 19.0473 66.065C19.2087 68.0279 19.4266 69.9827 19.7494 71.9456H20.5081C21.969 71.9468 23.4255 71.7835 24.8502 71.4589C24.5193 69.4392 24.3014 67.4033 24.14 65.408C24.0351 64.1021 23.9786 62.7394 23.9786 61.4254C24.1027 60.2821 24.3965 59.1639 24.8502 58.108C25.5764 55.7073 25.5764 53.1438 24.8502 50.7431C24.1965 48.0746 23.5428 45.9494 24.4144 43.2809C25.2215 40.7746 26.0931 38.4791 25.8268 35.8106C25.5605 33.142 24.3579 30.7979 23.6557 28.2348C23.2862 26.8848 23.1042 25.49 23.115 24.09C23.115 22.6787 23.5428 21.316 23.5428 19.9533C23.4469 18.7484 23.2112 17.5588 22.8406 16.4088C22.6227 15.2374 22.6227 14.0356 22.8406 12.8642C22.0658 12.7438 21.2839 12.676 20.5 12.6614Z" fill="#5BB174"/>
<path d="M29.3376 14.7866C29.1762 18.4933 30.4756 21.9811 31.7589 25.6879C33.712 31.0818 33.2197 36.3702 32.4045 41.9101C32.0252 44.6354 31.5975 47.3121 31.428 50.0861C31.2585 52.8601 31.6459 55.6503 31.5975 58.4811C31.4891 62.0153 31.144 65.538 30.5644 69.0256C32.8936 67.5786 34.904 65.6686 36.4723 63.4127C36.6417 61.8878 36.7467 60.3061 36.8032 58.7812C36.8516 56.1046 36.4723 53.436 36.5853 50.6701C36.7477 47.9491 37.0738 45.2404 37.5618 42.559C38.3205 37.3273 38.9662 32.0146 37.6102 26.7504C36.9081 24.1387 35.7701 21.7378 35.1164 19.2314C33.4852 17.3979 31.5247 15.89 29.3376 14.7866Z" fill="#5BB174"/>
<path d="M20.5 72.1889C15.2791 72.1824 10.2739 70.0953 6.58213 66.3851C2.89038 62.6749 0.813536 57.6447 0.807129 52.3978V32.1768C0.807129 26.93 2.88106 21.8981 6.57269 18.1881C10.2643 14.4781 15.2712 12.3938 20.492 12.3938C25.7127 12.3938 30.7196 14.4781 34.4113 18.1881C38.1029 21.8981 40.1768 26.93 40.1768 32.1768V52.3978C40.1704 57.6419 38.0958 62.6697 34.4075 66.3794C30.7193 70.0891 25.7182 72.1782 20.5 72.1889ZM20.5 12.9778C15.429 12.9756 10.5645 14.9964 6.97502 18.5962C3.3855 22.196 1.3645 27.0805 1.35595 32.1768V52.3978C1.35595 57.5004 3.37291 62.3941 6.96312 66.0022C10.5533 69.6103 15.4227 71.6373 20.5 71.6373C25.5774 71.6373 30.4467 69.6103 34.037 66.0022C37.6272 62.3941 39.6441 57.5004 39.6441 52.3978V32.1768C39.6249 27.0838 37.6005 22.2055 34.0133 18.608C30.4261 15.0105 25.5678 12.9863 20.5 12.9778Z" fill="#080808"/>
<path d="M14.4227 39.201C17.8058 39.201 20.5485 36.0779 20.5485 32.2254C20.5485 28.373 17.8058 25.2499 14.4227 25.2499C11.0395 25.2499 8.29688 28.373 8.29688 32.2254C8.29688 36.0779 11.0395 39.201 14.4227 39.201Z" fill="#F2EAE0"/>
<path d="M14.4226 39.8012C10.7343 39.8012 7.7561 36.427 7.7561 32.2822C7.7561 28.1374 10.7343 24.7632 14.4226 24.7632C18.111 24.7632 21.0972 28.1374 21.0972 32.2822C21.0972 36.427 18.111 39.8012 14.4226 39.8012ZM14.4226 25.7933C11.2992 25.7933 8.87795 28.689 8.87795 32.2254C8.87795 35.7619 11.3719 38.6576 14.463 38.6576C17.5541 38.6576 20.0561 35.77 20.0561 32.2254C20.0561 28.6809 17.5138 25.7933 14.4226 25.7933Z" fill="#080808"/>
<path d="M26.4644 39.201C29.8476 39.201 32.5902 36.0779 32.5902 32.2254C32.5902 28.373 29.8476 25.2499 26.4644 25.2499C23.0812 25.2499 20.3386 28.373 20.3386 32.2254C20.3386 36.0779 23.0812 39.201 26.4644 39.201Z" fill="#F2EAE0"/>
<path d="M26.4644 39.8012C22.776 39.8012 19.7979 36.427 19.7979 32.2822C19.7979 28.1374 22.776 24.7632 26.4644 24.7632C30.1528 24.7632 33.139 28.1374 33.139 32.2822C33.139 36.427 30.1528 39.8012 26.4644 39.8012ZM26.4644 25.7933C23.3732 25.7933 20.8793 28.689 20.8793 32.2254C20.8793 35.7619 23.3732 38.6576 26.4644 38.6576C29.5555 38.6576 32.0494 35.77 32.0494 32.2254C32.0494 28.6809 29.5555 25.7933 26.4644 25.7933Z" fill="#080808"/>
<path d="M16.8117 30.4816C14.8586 30.4816 13.3413 31.7388 13.3413 33.3204C13.3307 33.7258 13.4433 34.1247 13.6641 34.4641L15.8916 34.5696L15.1895 35.77C15.7002 35.9867 16.2493 36.0971 16.8037 36.0944C18.7568 36.0944 20.2741 34.8453 20.2741 33.2637C20.2741 31.682 18.7649 30.4816 16.8117 30.4816Z" fill="#021023"/>
<path d="M16.8117 36.427C16.2118 36.4352 15.6181 36.3048 15.0764 36.0458L14.802 35.9322L15.4557 34.8778L13.5591 34.7642L13.5026 34.6588C13.2874 34.2577 13.1764 33.8085 13.1798 33.3529C13.1798 31.609 14.8585 30.2463 16.9246 30.2463C18.9908 30.2463 20.6615 31.6333 20.6615 33.3204C20.6615 35.0076 18.8697 36.427 16.8117 36.427ZM15.5687 35.6889C15.9714 35.8175 16.3895 35.8912 16.8117 35.9079C18.6034 35.9079 20.04 34.7561 20.04 33.3448C20.04 31.9334 18.6276 30.7817 16.8117 30.7817C14.9957 30.7817 13.5833 31.9253 13.5833 33.3448C13.5746 33.6668 13.6497 33.9856 13.8012 34.2694L16.2951 34.4317L15.5687 35.6889Z" fill="#080808"/>
<path d="M29.1198 30.4816C27.1747 30.4816 25.6493 31.7388 25.6493 33.3204C25.6412 33.7266 25.7566 34.1256 25.9802 34.4641L28.4741 34.5209L27.4976 35.77C28.0083 35.9867 28.5574 36.0971 29.1117 36.0944C31.0649 36.0944 32.5903 34.8453 32.5903 33.2637C32.5903 31.682 31.073 30.4816 29.1198 30.4816Z" fill="#021023"/>
<path d="M29.1197 36.427C28.5201 36.4335 27.9267 36.3032 27.3845 36.0458L27.0616 35.8836L27.8687 34.7886L25.7542 34.7318L25.6977 34.6263C25.4825 34.2252 25.3715 33.7761 25.3748 33.3204C25.3748 31.6252 27.0536 30.2139 29.1116 30.2139C31.1697 30.2139 32.8565 31.6252 32.8565 33.3204C32.8565 35.0157 31.1859 36.427 29.1197 36.427ZM27.9333 35.6889C28.3214 35.7975 28.7185 35.8708 29.1197 35.9079C30.9114 35.9079 32.3481 34.7642 32.3481 33.3529C32.3481 31.9416 30.9114 30.8222 29.1197 30.8222C27.328 30.8222 25.8914 31.9659 25.8914 33.3853C25.8872 33.7069 25.9621 34.0245 26.1093 34.31L28.926 34.4154L27.9333 35.6889Z" fill="#080808"/>
<path d="M32.5983 32.4444V32.2822C32.5983 28.4132 29.8299 25.3067 26.4644 25.3067C23.4862 25.3067 21.0408 27.74 20.4435 30.9196C19.9028 27.6751 17.4089 25.3067 14.4227 25.3067C11.0652 25.3067 8.29688 28.47 8.29688 32.2822V32.4444H32.5983Z" fill="#139239"/>
<path d="M20.4435 33.9693L20.2821 32.9879H7.7561V32.2822C7.7561 28.1374 10.7343 24.7632 14.4226 24.7632C15.7313 24.7966 17.0009 25.2178 18.0721 25.974C19.1433 26.7302 19.9683 27.7876 20.4435 29.0134C20.9205 27.7888 21.7459 26.7326 22.8167 25.9766C23.8876 25.2207 25.1563 24.7987 26.4644 24.7632C30.1528 24.7632 33.139 28.1374 33.139 32.2822V32.9879H20.6049L20.4435 33.9693ZM20.8228 31.901H32.0494C31.888 28.5187 29.4506 25.7933 26.4644 25.7933C23.8656 25.7933 21.5331 27.9752 20.9923 30.9763L20.8228 31.901ZM8.87795 31.901H20.0642L19.9028 30.9763C19.7448 29.6066 19.1064 28.3383 18.1021 27.3989C17.0978 26.4595 15.7933 25.9104 14.4226 25.8501C11.4445 25.7933 8.99902 28.47 8.87795 31.901Z" fill="#080808"/>
<path d="M18.563 23.7007C18.4492 23.6889 18.3391 23.653 18.2402 23.5952C17.2255 22.8821 16.0329 22.4679 14.7966 22.3991C13.5603 22.3303 12.3295 22.6097 11.2427 23.2059C11.1788 23.2498 11.1066 23.2798 11.0305 23.294C10.9545 23.3083 10.8763 23.3064 10.801 23.2886C10.7257 23.2708 10.6549 23.2375 10.5931 23.1906C10.5313 23.1438 10.48 23.0846 10.4422 23.0167C10.4045 22.9488 10.3813 22.8737 10.374 22.7963C10.3668 22.7189 10.3757 22.6408 10.4001 22.5671C10.4245 22.4933 10.464 22.4254 10.516 22.3679C10.5679 22.3103 10.6313 22.2642 10.702 22.2326C11.9632 21.5352 13.3932 21.206 14.8307 21.2819C16.2682 21.3579 17.6559 21.836 18.8374 22.6624C18.9015 22.6994 18.9563 22.7507 18.9977 22.8123C19.039 22.8739 19.0658 22.9442 19.0759 23.0178C19.0861 23.0914 19.0793 23.1664 19.0561 23.2369C19.033 23.3075 18.994 23.3718 18.9423 23.4249C18.9247 23.5101 18.8761 23.5857 18.8059 23.6367C18.7357 23.6878 18.6491 23.7106 18.563 23.7007Z" fill="#080808"/>
<path d="M30.3707 23.7007C30.2568 23.6889 30.1468 23.653 30.0478 23.5952C28.9287 22.8219 27.6045 22.4037 26.2464 22.3948C25.1195 22.3876 24.0091 22.6666 23.0181 23.2059C22.9542 23.2498 22.882 23.2798 22.8059 23.294C22.7298 23.3083 22.6517 23.3064 22.5764 23.2886C22.501 23.2708 22.4302 23.2375 22.3685 23.1906C22.3067 23.1438 22.2553 23.0846 22.2176 23.0167C22.1799 22.9488 22.1567 22.8737 22.1494 22.7963C22.1422 22.7189 22.151 22.6408 22.1755 22.5671C22.1999 22.4933 22.2394 22.4254 22.2914 22.3679C22.3433 22.3103 22.4067 22.2642 22.4774 22.2326C23.6015 21.5899 24.8724 21.2517 26.1657 21.2511C27.7396 21.252 29.2741 21.7452 30.5563 22.6624C30.6204 22.6994 30.6752 22.7507 30.7166 22.8123C30.7579 22.8739 30.7847 22.9442 30.7948 23.0178C30.805 23.0914 30.7982 23.1664 30.775 23.2369C30.7519 23.3075 30.7129 23.3718 30.6612 23.4249C30.6693 23.6439 30.5321 23.7007 30.3707 23.7007Z" fill="#080808"/>
<path d="M20.0643 45.8521C18.5153 45.8537 16.9706 45.6906 15.4558 45.3654C16.158 48.0908 18.2806 50.0537 20.7745 50.0537C23.4298 50.0537 25.617 47.8718 26.1981 44.9842C24.2061 45.5702 22.1399 45.8626 20.0643 45.8521Z" fill="#021023"/>
<path d="M20.7744 50.5971C18.0626 50.5971 15.6736 48.5288 14.9149 45.4709L14.697 44.6598L15.5687 44.8301C17.0313 45.1341 18.5223 45.2783 20.0157 45.26H20.0641C22.0799 45.2658 24.0868 44.9929 26.0285 44.4489L26.9002 44.1731L26.7388 45.0491C26.085 48.3584 23.6476 50.5971 20.7744 50.5971ZM16.2143 46.0711C16.542 47.036 17.1534 47.8783 17.9676 48.4866C18.7818 49.0949 19.7605 49.4405 20.7744 49.4778C21.8444 49.4144 22.8683 49.0181 23.7042 48.3438C24.54 47.6694 25.1464 46.7504 25.4393 45.7142C22.4198 46.4626 19.2786 46.5731 16.2143 46.0387V46.0711Z" fill="#080808"/>
<path d="M28.1997 44.3272C25.9794 45.7187 23.4153 46.4563 20.7987 46.4563C18.1821 46.4563 15.618 45.7187 13.3977 44.3272" fill="#139239"/>
<path d="M20.8229 46.9958C18.1045 47.0094 15.4369 46.2563 13.1233 44.822L13.7205 43.8892C15.8524 45.2253 18.3145 45.9336 20.8269 45.9336C23.3394 45.9336 25.8014 45.2253 27.9333 43.8892L28.5306 44.822C26.2146 46.2577 23.544 47.0109 20.8229 46.9958Z" fill="#080808"/>
<path d="M29.2326 45.4222C28.6545 45.4124 28.102 45.1811 27.688 44.7755C27.2739 44.37 27.0297 43.8208 27.005 43.2403C27.0002 43.167 27.0111 43.0935 27.037 43.0248C27.063 42.956 27.1034 42.8938 27.1555 42.8422C27.2076 42.7906 27.2702 42.7509 27.3389 42.7258C27.4077 42.7008 27.481 42.6909 27.5539 42.6969C27.6973 42.6969 27.8348 42.7541 27.9362 42.8561C28.0376 42.958 28.0946 43.0962 28.0946 43.2403C28.0938 43.3931 28.125 43.5444 28.1863 43.6843C28.2476 43.8241 28.3375 43.9494 28.4502 44.052C28.5629 44.1546 28.6959 44.2321 28.8405 44.2795C28.985 44.3269 29.1379 44.3432 29.2891 44.3272C29.361 44.3237 29.4329 44.3354 29.5001 44.3615C29.5672 44.3876 29.6282 44.4275 29.6792 44.4787C29.7301 44.5298 29.7698 44.5911 29.7957 44.6587C29.8217 44.7262 29.8333 44.7984 29.8298 44.8707C29.8328 44.9481 29.8189 45.0253 29.7892 45.0968C29.7595 45.1684 29.7148 45.2326 29.658 45.2851C29.6012 45.3375 29.5337 45.3769 29.4603 45.4006C29.3868 45.4243 29.3092 45.4317 29.2326 45.4222Z" fill="#080808"/>
<path d="M12.3082 45.4222C12.2327 45.4266 12.157 45.4157 12.0858 45.3901C12.0145 45.3646 11.9491 45.3249 11.8934 45.2735C11.8377 45.222 11.7929 45.1599 11.7615 45.0907C11.7302 45.0215 11.713 44.9467 11.7109 44.8707C11.7223 44.729 11.7839 44.5961 11.8847 44.4963C11.9855 44.3965 12.1186 44.3365 12.2598 44.3272C12.5555 44.323 12.8394 44.2101 13.058 44.0098C13.2766 43.8096 13.4147 43.5359 13.4462 43.2403C13.4624 43.1066 13.5268 42.9835 13.6271 42.8942C13.7275 42.8049 13.8569 42.7555 13.991 42.7555C14.125 42.7555 14.2544 42.8049 14.3548 42.8942C14.4551 42.9835 14.5195 43.1066 14.5357 43.2403C14.5111 43.8208 14.2668 44.37 13.8528 44.7755C13.4388 45.1811 12.8863 45.4124 12.3082 45.4222Z" fill="#080808"/>
<path d="M3.09106 0.511001C3.03457 0.559668 4.60838 9.23044 9.05543 13.0427C13.5025 16.8549 18.7405 18.0553 20.6613 15.7112L20.7743 15.6058L20.8793 15.4922C22.8324 13.1481 20.8228 8.19222 16.3757 4.38C11.9287 0.567779 3.14756 0.454223 3.09106 0.511001Z" fill="#609C3F"/>
<path d="M17.6833 17.4551C15.0199 17.4551 11.6624 15.987 8.73272 13.4807C4.03548 9.44945 2.60693 0.616446 2.60693 0.559668V0.340668L2.71185 0.235224L2.76835 0.0730017L3.03469 1.69128e-06C3.47052 -0.105443 12.2597 0.219002 16.7552 4.05556C21.5331 8.11111 23.4863 13.3266 21.3152 15.9383L21.2022 16.0519L21.0973 16.1573C20.3363 16.9801 19.2842 17.4695 18.1676 17.52C18.0111 17.4704 17.8472 17.4485 17.6833 17.4551ZM3.79335 1.05445C4.22918 3.066 5.85949 9.49811 9.44296 12.6047C12.3162 15.038 15.6817 16.5304 18.1191 16.3114C18.5305 16.3176 18.9381 16.2329 19.3133 16.0633C19.6884 15.8937 20.0219 15.6434 20.2902 15.33L20.3467 15.2813L20.4516 15.1678C22.2434 13.0994 20.1853 8.35445 16.0611 4.80989C12.3646 1.70334 5.803 1.15989 3.79335 1.05445Z" fill="#080808"/>
<path d="M3.63209 0.188141L2.93115 1.01585L20.4849 16.0298L21.1859 15.2021L3.63209 0.188141Z" fill="#080808"/>
<path d="M11.3107 1.50953L10.2366 1.63634L10.939 7.64591L12.0131 7.5191L11.3107 1.50953Z" fill="#080808"/>
<path d="M15.68 4.32225L15.4609 11.5702L16.5419 11.6032L16.761 4.35525L15.68 4.32225Z" fill="#080808"/>
<path d="M13.2532 8.94438L7.79517 11.3614L8.23125 12.356L13.6893 9.93899L13.2532 8.94438Z" fill="#080808"/>
<path d="M18.2606 13.2078L13.5818 15.5012L14.0559 16.4781L18.7347 14.1847L18.2606 13.2078Z" fill="#080808"/>
<path d="M19.7333 8.93758L19.2517 14.7494L20.3295 14.8396L20.811 9.02778L19.7333 8.93758Z" fill="#080808"/>
<path d="M35.1728 32.7851H4.28556C4.15071 32.7851 4.02138 32.7313 3.92603 32.6354C3.83067 32.5396 3.7771 32.4096 3.7771 32.2741C3.7771 32.1386 3.83067 32.0086 3.92603 31.9128C4.02138 31.817 4.15071 31.7631 4.28556 31.7631H35.1728C35.3076 31.7631 35.437 31.817 35.5323 31.9128C35.6277 32.0086 35.6812 32.1386 35.6812 32.2741C35.6812 32.4096 35.6277 32.5396 35.5323 32.6354C35.437 32.7313 35.3076 32.7851 35.1728 32.7851Z" fill="#010F24"/>
</g>
<defs>
<clipPath id="clip0_1896_13553">
<rect width="41" height="73" fill="white"/>
</clipPath>
</defs>
</svg>
