<svg width="35" height="70" viewBox="0 0 35 70" fill="none" xmlns="http://www.w3.org/2000/svg">
<path fill-rule="evenodd" clip-rule="evenodd" d="M-2.22198e-06 50.833C1.76137 50.833 3.52391 50.5391 5.21297 49.9502C8.76214 48.7126 11.7553 46.2528 13.657 43.0106C15.5587 39.7685 16.245 35.9555 15.593 32.2537C14.941 28.5519 12.9934 25.2028 10.0984 22.8055C7.25696 20.4525 3.68487 19.167 -8.37817e-07 19.167L0 -4.09123e-06C8.14568 -8.90224e-05 16.0421 2.84162 22.3232 8.04313C28.7228 13.3427 33.0282 20.7461 34.4695 28.9291C35.9107 37.1121 34.3937 45.541 30.1898 52.7081C25.9859 59.8751 19.3694 65.3128 11.5237 68.0485C7.78988 69.3505 3.89363 70 -3.0598e-06 70L-2.22198e-06 50.833Z" fill="#6DE7B4"/>
<g clip-path="url(#clip0_10098_282)">
<path d="M-2 43.13L-0.23 44.9L9.67 35L-0.23 25.1L-2 26.87L6.13 35L-2 43.13V43.13Z" fill="#6DE7B4"/>
</g>
<defs>
<clipPath id="clip0_10098_282">
<rect width="24" height="24" fill="white" transform="translate(4 23)"/>
</clipPath>
</defs>
</svg>
