<svg width="28" height="33" viewBox="0 0 28 33" fill="none" xmlns="http://www.w3.org/2000/svg">
<path d="M14.2863 32.3538C21.6467 32.3538 27.6134 26.387 27.6134 19.0267C27.6134 11.6663 21.6467 5.69955 14.2863 5.69955C6.92598 5.69955 0.959229 11.6663 0.959229 19.0267C0.959229 26.387 6.92598 32.3538 14.2863 32.3538Z" fill="#F86C44"/>
<path d="M14.2866 32.7398C6.7153 32.7398 0.573242 26.5978 0.573242 19.0264C0.573242 11.4551 6.7153 5.31302 14.2866 5.31302C21.858 5.31302 28 11.4551 28 19.0264C28 26.5978 21.858 32.7398 14.2866 32.7398ZM14.2866 6.04698C7.14022 6.04698 1.34583 11.8414 1.34583 18.9878C1.34583 26.1342 7.14022 31.9286 14.2866 31.9286C21.4331 31.9286 27.2274 26.1342 27.2274 18.9878C27.2274 11.8414 21.4331 6.04698 14.2866 6.04698Z" fill="#080808"/>
<path d="M10.5398 22.8125C12.6306 22.8125 14.3255 20.4431 14.3255 17.5203C14.3255 14.5975 12.6306 12.2281 10.5398 12.2281C8.44905 12.2281 6.75415 14.5975 6.75415 17.5203C6.75415 20.4431 8.44905 22.8125 10.5398 22.8125Z" fill="#F2EAE0"/>
<path d="M10.5401 23.1998C8.261 23.1998 6.36816 20.6502 6.36816 17.5213C6.36816 14.3923 8.22237 11.8428 10.5401 11.8428C12.8579 11.8428 14.7121 14.3923 14.7121 17.5213C14.7121 20.6502 12.8579 23.1998 10.5401 23.1998ZM10.5401 12.6154C8.68592 12.6154 7.14075 14.8172 7.14075 17.5213C7.14075 20.2253 8.64729 22.4272 10.5401 22.4272C12.433 22.4272 13.9395 20.2253 13.9395 17.5213C13.9395 14.8172 12.433 12.6154 10.5401 12.6154Z" fill="#080808"/>
<path d="M17.9563 22.8125C20.0471 22.8125 21.742 20.443 21.742 17.5202C21.742 14.5974 20.0471 12.228 17.9563 12.228C15.8656 12.228 14.1707 14.5974 14.1707 17.5202C14.1707 20.443 15.8656 22.8125 17.9563 22.8125Z" fill="#F2EAE0"/>
<path d="M17.9564 23.1998C15.6773 23.1998 13.7844 20.6502 13.7844 17.5213C13.7844 14.3923 15.6386 11.8428 17.9564 11.8428C20.2741 11.8428 22.1283 14.3923 22.1283 17.5213C22.1283 20.6502 20.2741 23.1998 17.9564 23.1998ZM17.9564 12.6154C16.1022 12.6154 14.557 14.8172 14.557 17.5213C14.557 20.2253 16.0636 22.4272 17.9564 22.4272C19.8492 22.4272 21.3558 20.2253 21.3558 17.5213C21.3558 14.8172 19.8492 12.6154 17.9564 12.6154Z" fill="#080808"/>
<path d="M14.2095 18.7178H15.6388C16.6817 18.7178 17.5316 19.5676 17.5316 20.6106C17.5316 21.6536 16.6817 22.5034 15.6388 22.5034H14.2095" fill="#F86C44"/>
<path d="M15.6385 22.8897H14.2092V22.1172H15.6385C16.4497 22.1172 17.1451 21.4605 17.1451 20.6106C17.1451 19.7994 16.4884 19.1041 15.6385 19.1041H14.2092V18.3315H15.6385C16.8746 18.3315 17.9176 19.3358 17.9176 20.6106C17.9176 21.8854 16.9133 22.8897 15.6385 22.8897Z" fill="#080808"/>
<path d="M12.0072 16.1679C10.8097 16.1679 9.84399 17.1336 9.84399 18.3311C9.84399 18.6402 9.92125 18.9492 10.0371 19.2196L11.3892 19.2969L10.9642 20.224C12.0072 20.8034 13.3206 20.3785 13.8614 19.3355C14.4022 18.2925 14.016 16.9791 12.973 16.4383C12.7026 16.2838 12.3549 16.1679 12.0072 16.1679Z" fill="#021023"/>
<path d="M19.6181 16.1681C18.4206 16.1681 17.4548 17.1338 17.4548 18.3313C17.4548 18.6403 17.5321 18.9494 17.648 19.2198L19.1545 19.2584L18.5751 20.2241C19.6181 20.8036 20.9315 20.3787 21.4723 19.3357C22.0517 18.2927 21.6268 16.9793 20.5838 16.4385C20.3134 16.2839 19.9657 16.1681 19.6181 16.1681Z" fill="#021023"/>
<path d="M21.7421 17.6748C21.7421 17.6362 21.7421 17.5976 21.7421 17.5203C21.7421 14.5845 20.0424 12.2281 17.9564 12.2281C16.1408 12.2281 14.5957 14.0437 14.248 16.4773C13.9003 14.0823 12.3552 12.2281 10.5396 12.2281C8.45359 12.2281 6.75391 14.5845 6.75391 17.5203V17.6748H21.7421Z" fill="#F86C44"/>
<path d="M14.2482 19.1823L14.0937 18.0621H6.40649V17.5213C6.40649 14.3923 8.2607 11.8428 10.5785 11.8428C12.1623 11.8428 13.5915 13.0789 14.2869 14.9331C14.9822 13.0789 16.4115 11.8428 17.9953 11.8428C20.2744 11.8428 22.1672 14.3923 22.1672 17.5213V18.0621H14.48L14.2482 19.1823ZM14.5186 17.2895H21.3174C21.2401 14.7013 19.7336 12.6154 17.918 12.6154C16.3342 12.6154 14.9436 14.2764 14.5959 16.5169L14.5186 17.2895ZM7.17908 17.2895H13.9778L13.8619 16.5555C13.5529 14.2764 12.1236 12.654 10.5398 12.654C8.76288 12.6154 7.25634 14.7013 7.17908 17.2895Z" fill="#080808"/>
<path d="M5.59497 0.561672C5.59497 0.561672 6.32893 4.81089 8.5308 6.62647C10.7327 8.44204 13.2436 9.06011 14.1707 7.93986L14.2093 7.90124L14.2479 7.86261C15.2137 6.74236 14.2093 4.30871 12.0461 2.49314C9.88282 0.67756 5.59497 0.523043 5.59497 0.561672Z" fill="#609C3F"/>
<path d="M12.7026 8.90585C11.4279 8.90585 9.76681 8.21053 8.26026 6.93576C6.01977 5.04292 5.24718 0.793703 5.20855 0.639186L5.16992 0.484669L5.36307 0.214264H5.51759C5.55621 0.214264 9.95995 0.214264 12.2777 2.22299C14.6341 4.23171 15.6385 6.8585 14.5182 8.13327L14.4796 8.1719C14.4409 8.21053 14.4409 8.21053 14.4023 8.24915C14.0547 8.67408 13.4366 8.90585 12.7026 8.90585ZM6.0584 0.94822C6.3288 2.06847 7.14002 4.96567 8.76245 6.31769C10.7325 7.97875 13.0889 8.59682 13.8615 7.66971L13.9774 7.55383C14.75 6.62672 13.7843 4.42486 11.8142 2.72517C10.2304 1.41177 7.2559 1.02548 6.0584 0.94822Z" fill="#080808"/>
<path d="M5.88499 0.311792L5.38428 0.900116L13.9444 8.18549L14.4451 7.59717L5.88499 0.311792Z" fill="#080808"/>
<path d="M9.70923 1.0284L8.94189 1.11841L9.28392 4.03427L10.0512 3.94426L9.70923 1.0284Z" fill="#080808"/>
<path d="M11.6177 2.35034L11.5139 5.8642L12.2862 5.88701L12.39 2.37315L11.6177 2.35034Z" fill="#080808"/>
<path d="M10.4544 4.52916L7.80322 5.6976L8.11481 6.40459L10.766 5.23615L10.4544 4.52916Z" fill="#080808"/>
<path d="M7.80546 2.22276L6.20996 2.80847L6.47619 3.5337L8.07169 2.94799L7.80546 2.22276Z" fill="#080808"/>
<path d="M12.9481 6.61267L10.6553 7.72784L10.9932 8.42263L13.286 7.30746L12.9481 6.61267Z" fill="#080808"/>
<path d="M13.5601 4.62816L13.3259 7.43823L14.0958 7.5024L14.33 4.69233L13.5601 4.62816Z" fill="#080808"/>
<path d="M25.7601 5.77683C25.7601 5.81546 22.8243 8.94443 20.0043 9.29209C17.1844 9.63976 14.7507 8.75128 14.5576 7.28337C14.5576 7.24474 14.5576 7.24474 14.5576 7.20611V7.12885C14.3645 5.66094 16.4891 4.19303 19.309 3.80673C22.1289 3.42044 25.7601 5.77683 25.7601 5.77683Z" fill="#609C3F"/>
<path d="M18.768 9.75595C17.8022 9.75595 16.9138 9.60143 16.1798 9.33103C15.0209 8.90611 14.287 8.21078 14.1711 7.32231C14.1711 7.28368 14.1711 7.20642 14.1711 7.16779C14.0938 6.62698 14.287 6.08617 14.6733 5.58399C15.4845 4.50237 17.2614 3.69115 19.2702 3.42075C21.9356 3.07309 26.0303 5.12044 26.1462 5.66125V5.73851C26.1462 6.16343 22.824 9.2924 20.0427 9.64006C19.6178 9.75595 19.1929 9.75595 18.768 9.75595ZM19.9655 4.19333C19.7723 4.19333 19.5406 4.19333 19.3474 4.23196C17.5705 4.46374 15.948 5.1977 15.2527 6.08617C14.9823 6.43383 14.8664 6.7815 14.905 7.09053V7.20642C14.9823 7.78586 15.5231 8.28804 16.4116 8.59707C17.3773 8.94474 18.6521 9.06062 19.9655 8.86748C22.0901 8.59707 24.3306 6.58835 25.1418 5.81576C24.2533 5.35221 22.0128 4.19333 19.9655 4.19333Z" fill="#080808"/>
<path d="M25.6258 5.40557L14.478 6.85455L14.5776 7.62073L25.7254 6.17174L25.6258 5.40557Z" fill="#080808"/>
<path d="M22.0333 3.92601L20.1614 6.18777L20.7566 6.68038L22.6285 4.41861L22.0333 3.92601Z" fill="#080808"/>
<path d="M19.0754 3.65227L17.2493 6.65607L17.9094 7.05743L19.7356 4.05363L19.0754 3.65227Z" fill="#080808"/>
<path d="M19.4953 6.45762L18.8489 6.88077L20.4357 9.30485L21.0821 8.88171L19.4953 6.45762Z" fill="#080808"/>
<path d="M16.329 6.87605L15.6672 7.27478L16.9631 9.42537L17.6248 9.02664L16.329 6.87605Z" fill="#080808"/>
<path d="M16.1671 4.47885L14.8179 6.99896L15.499 7.36362L16.8482 4.84351L16.1671 4.47885Z" fill="#080808"/>
<path d="M13.8616 25.2467C12.4709 25.2467 11.1189 25.0922 9.76685 24.8218C10.3849 27.2168 12.2777 28.9551 14.5182 28.9551C16.8746 28.9551 18.8447 27.0237 19.3469 24.4741C17.5313 25.0149 15.6771 25.2853 13.8616 25.2467Z" fill="#EEEEE7"/>
<path d="M14.4797 29.3798C12.1233 29.3798 10.0373 27.5642 9.38059 24.9374L9.22607 24.3194L9.84414 24.4353C11.1575 24.7057 12.5096 24.8602 13.8616 24.8602C15.6772 24.8602 17.4541 24.6284 19.1924 24.1262L19.8105 23.9331L19.6946 24.5511C19.1152 27.3711 16.9519 29.3798 14.4797 29.3798ZM10.3077 25.3624C11.0417 27.2938 12.6641 28.6072 14.4797 28.6072C16.3725 28.6072 18.1108 27.1393 18.7675 25.0533C17.1451 25.4782 15.5226 25.6714 13.8616 25.6714C12.6641 25.6714 11.4666 25.5555 10.3077 25.3624Z" fill="#080808"/>
<path d="M20.8923 23.585C16.8748 26.0959 11.7757 26.0959 7.7583 23.585H20.8923Z" fill="#F86C44"/>
<path d="M14.325 25.8257C11.9686 25.8257 9.61222 25.169 7.56486 23.8942C7.37172 23.7784 7.33309 23.5466 7.44898 23.3534C7.56486 23.1603 7.79664 23.1217 7.98979 23.2375C11.8527 25.6712 16.8359 25.6712 20.6988 23.2375C20.892 23.1217 21.1237 23.1603 21.2396 23.3534C21.3555 23.5466 21.3169 23.7784 21.1237 23.8942C19.0378 25.2076 16.6814 25.8257 14.325 25.8257Z" fill="#080808"/>
<path d="M12.5492 28.8381C13.4452 28.8381 14.1716 28.5095 14.1716 28.1042C14.1716 27.6988 13.4452 27.3702 12.5492 27.3702C11.6531 27.3702 10.9268 27.6988 10.9268 28.1042C10.9268 28.5095 11.6531 28.8381 12.5492 28.8381Z" fill="#E54B4D"/>
<path d="M12.5495 29.2241C11.5451 29.2241 10.5408 28.8378 10.5408 28.1038C10.5408 26.6359 14.5582 26.6359 14.5582 28.1038C14.5582 28.8378 13.5539 29.2241 12.5495 29.2241ZM12.5495 27.7561C11.7769 27.7561 11.352 28.0265 11.3134 28.1038C11.352 28.1811 11.7769 28.4128 12.5495 28.4128C13.3221 28.4128 13.747 28.1424 13.7856 28.0652C13.747 28.0265 13.3221 27.7561 12.5495 27.7561Z" fill="#080808"/>
<path d="M14.7508 29.2247C15.6469 29.2247 16.3733 28.8961 16.3733 28.4907C16.3733 28.0854 15.6469 27.7568 14.7508 27.7568C13.8548 27.7568 13.1284 28.0854 13.1284 28.4907C13.1284 28.8961 13.8548 29.2247 14.7508 29.2247Z" fill="#E54B4D"/>
<path d="M14.7512 29.611C13.7468 29.611 12.7424 29.2247 12.7424 28.4907C12.7424 27.0228 16.7599 27.0228 16.7599 28.4907C16.7599 29.2247 15.7555 29.611 14.7512 29.611ZM14.7512 28.1431C13.9786 28.1431 13.5536 28.4135 13.515 28.4907C13.5536 28.568 13.9786 28.7998 14.7512 28.7998C15.5237 28.7998 15.9487 28.5294 15.9873 28.4521C15.9487 28.3748 15.5237 28.1431 14.7512 28.1431Z" fill="#080808"/>
<path d="M17.3393 27.9879L16.0259 28.7219L12.781 28.2583L11.9312 28.3356L12.3947 29.8421C12.3947 29.8421 12.8969 31.3873 15.0988 30.4602C17.3006 29.5331 17.3006 29.5331 17.3006 29.5331L17.3393 27.9879Z" fill="#080808"/>
<path d="M14.4805 29.0699C12.3172 29.0699 10.3471 27.4089 9.76769 25.0139L9.69043 24.7048L9.99946 24.7821C11.2742 25.0525 12.5876 25.1684 13.901 25.1684C13.9397 25.1684 13.9783 25.1684 14.0169 25.1684C15.7166 25.1684 17.4163 24.9366 19.0773 24.473L19.3864 24.3958L19.3091 24.7048C18.7683 27.2544 16.7982 29.0699 14.4805 29.0699ZM10.2312 25.207C10.8879 27.2543 12.5876 28.6836 14.4805 28.6836C16.5278 28.6836 18.2661 27.1385 18.8456 24.9366C17.2231 25.3615 15.5621 25.5933 13.901 25.5547C12.6649 25.5547 11.4287 25.4388 10.2312 25.207Z" fill="#080808"/>
<path d="M8.56958 26.8301L10.7328 26.9074L12.0462 28.3367L13.3596 28.8388L15.4456 28.9161L17.3771 27.9504L18.3814 27.2164L21.0082 28.9933C21.0082 28.9933 22.5147 30.1909 17.1067 30.4613C11.6986 30.7317 11.8531 30.7703 11.8531 30.7703L8.76273 29.6887L8.56958 26.8301Z" fill="#F86C44"/>
<path d="M14.4799 29.3798C12.1235 29.3798 10.0375 27.5642 9.38084 24.9374L9.22632 24.3194L9.84439 24.4353C11.1578 24.7057 12.5098 24.8602 13.8618 24.8602C15.6774 24.8602 17.4544 24.6284 19.1927 24.1262L19.8107 23.9331L19.6949 24.5511C19.1154 27.3711 16.9522 29.3798 14.4799 29.3798ZM10.3079 25.3624C11.0419 27.2938 12.6643 28.6072 14.4799 28.6072C16.3727 28.6072 18.1111 27.1393 18.7678 25.0533C17.1453 25.4782 15.5229 25.6714 13.8618 25.6714C12.6643 25.6714 11.4668 25.5555 10.3079 25.3624Z" fill="#080808"/>
</svg>
