<svg width="36" height="34" viewBox="0 0 36 34" fill="none" xmlns="http://www.w3.org/2000/svg">
<path d="M12.25 2.75C13.4243 2.75 14.5723 3.09823 15.5487 3.75065C16.5251 4.40307 17.2861 5.33038 17.7355 6.41532C18.1849 7.50025 18.3025 8.69409 18.0734 9.84585C17.8443 10.9976 17.2788 12.0556 16.4484 12.8859C15.6181 13.7163 14.5601 14.2818 13.4083 14.5109C12.2566 14.74 11.0628 14.6224 9.97782 14.173C8.89288 13.7236 7.96557 12.9626 7.31315 11.9862C6.66073 11.0098 6.3125 9.86183 6.3125 8.6875C6.3125 7.11278 6.93806 5.60255 8.05155 4.48905C9.16505 3.37556 10.6753 2.75 12.25 2.75ZM12.25 0.375C10.6059 0.375 8.99881 0.86252 7.63182 1.77591C6.26484 2.6893 5.1994 3.98753 4.57025 5.50644C3.9411 7.02535 3.77648 8.69672 4.09722 10.3092C4.41796 11.9217 5.20965 13.4028 6.37217 14.5653C7.5347 15.7278 9.01585 16.5195 10.6283 16.8403C12.2408 17.161 13.9121 16.9964 15.4311 16.3672C16.95 15.7381 18.2482 14.6727 19.1616 13.3057C20.075 11.9387 20.5625 10.3316 20.5625 8.6875C20.5625 6.48289 19.6867 4.36857 18.1278 2.80967C16.5689 1.25078 14.4546 0.375 12.25 0.375ZM24.125 33.625H21.75V27.6875C21.75 26.1128 21.1244 24.6026 20.0109 23.4891C18.8974 22.3756 17.3872 21.75 15.8125 21.75H8.6875C7.11278 21.75 5.60255 22.3756 4.48905 23.4891C3.37556 24.6026 2.75 26.1128 2.75 27.6875V33.625H0.375V27.6875C0.375 25.4829 1.25078 23.3686 2.80967 21.8097C4.36857 20.2508 6.48289 19.375 8.6875 19.375H15.8125C18.0171 19.375 20.1314 20.2508 21.6903 21.8097C23.2492 23.3686 24.125 25.4829 24.125 27.6875V33.625ZM27.6875 17.2138L24.6119 14.1381L22.9375 15.8125L27.6875 20.5625L36 12.25L34.3256 10.5756L27.6875 17.2138Z" fill="white"/>
</svg>
