<svg width="23" height="32" viewBox="0 0 23 32" fill="none" xmlns="http://www.w3.org/2000/svg">
<path d="M22.75 13.75V9.25002C22.7509 9.10196 22.7225 8.95519 22.6665 8.81812C22.6105 8.68106 22.528 8.55639 22.4237 8.45127L14.5487 0.576269C14.4436 0.472002 14.319 0.389511 14.1819 0.333526C14.0448 0.277541 13.8981 0.249163 13.75 0.250019H2.5C1.90326 0.250019 1.33097 0.487072 0.90901 0.909028C0.487053 1.33099 0.25 1.90328 0.25 2.50002V29.5C0.25 30.0968 0.487053 30.6691 0.90901 31.091C1.33097 31.513 1.90326 31.75 2.5 31.75H20.5C21.0967 31.75 21.669 31.513 22.091 31.091C22.5129 30.6691 22.75 30.0968 22.75 29.5V27.25H20.5V29.5H2.5V2.50002H11.5V9.25002C11.5 9.84676 11.7371 10.4191 12.159 10.841C12.581 11.263 13.1533 11.5 13.75 11.5H20.5V13.75H22.75ZM13.75 9.25002V2.96127L20.0387 9.25002H13.75Z" fill="#FED0B7"/>
</svg>
