<svg width="42" height="42" viewBox="0 0 42 42" fill="none" xmlns="http://www.w3.org/2000/svg">
<path d="M30 33H12C11.2044 33 10.4413 32.6839 9.87868 32.1213C9.31607 31.5587 9 30.7956 9 30V25.5H12V30H30V25.5H33V30C33 30.7956 32.6839 31.5587 32.1213 32.1213C31.5587 32.6839 30.7956 33 30 33ZM0 19.5H42V22.5H0V19.5ZM33 16.5H30V12H12V16.5H9V12C9 11.2044 9.31607 10.4413 9.87868 9.87868C10.4413 9.31607 11.2044 9 12 9H30C30.7956 9 31.5587 9.31607 32.1213 9.87868C32.6839 10.4413 33 11.2044 33 12V16.5ZM42 12H39V3H30V0H42V12ZM3 12H0V0H12V3H3V12ZM12 42H0V30H3V39H12V42ZM42 42H30V39H39V30H42V42Z" fill="white"/>
</svg>
