<svg width="30" height="30" viewBox="0 0 30 30" fill="none" xmlns="http://www.w3.org/2000/svg">
<path d="M24.5625 8.625L26.2551 11.8125L29.875 12.2524L27.2188 14.6462L27.75 18.1875L24.5625 16.1953L21.375 18.1875L21.9062 14.6462L19.25 12.2524L22.9688 11.8125L24.5625 8.625ZM21.375 29.875H19.25V24.5625C19.2483 23.1541 18.6881 21.8038 17.6921 20.8079C16.6962 19.8119 15.3459 19.2517 13.9375 19.25H7.5625C6.15406 19.2517 4.80378 19.8119 3.80786 20.8079C2.81194 21.8038 2.25169 23.1541 2.25 24.5625V29.875H0.125V24.5625C0.12725 22.5906 0.911564 20.7002 2.30588 19.3059C3.70019 17.9116 5.59064 17.1272 7.5625 17.125H13.9375C15.9094 17.1272 17.7998 17.9116 19.1941 19.3059C20.5884 20.7002 21.3728 22.5906 21.375 24.5625V29.875ZM10.75 2.25C11.8007 2.25 12.8278 2.56157 13.7015 3.14532C14.5751 3.72906 15.256 4.55876 15.6581 5.52949C16.0602 6.50023 16.1654 7.56839 15.9604 8.59892C15.7554 9.62944 15.2495 10.576 14.5065 11.319C13.7635 12.062 12.8169 12.5679 11.7864 12.7729C10.7559 12.9779 9.68773 12.8727 8.71699 12.4706C7.74626 12.0685 6.91656 11.3876 6.33282 10.514C5.74907 9.64033 5.4375 8.61321 5.4375 7.5625C5.4375 6.15354 5.99721 4.80228 6.99349 3.806C7.98978 2.80971 9.34104 2.25 10.75 2.25ZM10.75 0.125C9.279 0.125 7.84104 0.561202 6.61795 1.37844C5.39486 2.19569 4.44157 3.35727 3.87865 4.71629C3.31572 6.07532 3.16843 7.57075 3.45541 9.01348C3.74239 10.4562 4.45074 11.7815 5.49089 12.8216C6.53105 13.8618 7.85628 14.5701 9.29902 14.8571C10.7417 15.1441 12.2372 14.9968 13.5962 14.4339C14.9552 13.8709 16.1168 12.9176 16.9341 11.6946C17.7513 10.4715 18.1875 9.0335 18.1875 7.5625C18.1875 5.58995 17.4039 3.69819 16.0091 2.30339C14.6143 0.908591 12.7225 0.125 10.75 0.125Z" fill="white"/>
</svg>
