<svg width="36" height="34" viewBox="0 0 36 34" fill="none" xmlns="http://www.w3.org/2000/svg">
<path d="M35.2803 25.2299L22.668 3.38434C20.608 -0.224468 15.3985 -0.224468 13.3459 3.38434L0.726155 25.2299C-1.33391 28.8387 1.23005 33.3219 5.38723 33.3219H30.5748C34.732 33.3219 37.3404 28.7942 35.2803 25.2299ZM17.9995 28.4756C16.9028 28.4756 15.9914 27.5641 15.9914 26.4674C15.9914 25.3707 16.9028 24.4592 17.9995 24.4592C19.0963 24.4592 20.0077 25.3707 19.9633 26.5193C20.0151 27.5641 19.0518 28.4756 17.9995 28.4756ZM19.8299 15.4928C19.741 17.0489 19.6446 18.5977 19.5557 20.1538C19.5112 20.6577 19.5112 21.1172 19.5112 21.6137C19.4668 22.4362 18.8221 23.0735 17.9995 23.0735C17.177 23.0735 16.5397 22.4807 16.4878 21.6581C16.3545 19.2349 16.2137 16.8562 16.0803 14.4331C16.0358 13.7958 15.9914 13.1511 15.9395 12.5138C15.9395 11.4616 16.5323 10.5946 17.4956 10.3204C18.459 10.0907 19.4149 10.5501 19.8299 11.4616C19.9707 11.7802 20.0151 12.0988 20.0151 12.4694C19.9707 13.4846 19.8743 14.4924 19.8299 15.4928Z" fill="#FED0B7"/>
</svg>
