<svg width="24" height="24" viewBox="0 0 24 24" fill="none" xmlns="http://www.w3.org/2000/svg">
<g clip-path="url(#clip0_2574_69527)">
<path d="M12 0.75C5.787 0.75 0.75 5.787 0.75 12L0.750375 12.0199L0.75 12.0397C0.75 18.231 5.75887 23.25 11.9381 23.25L11.9621 23.2493L12 23.25C18.213 23.25 23.25 18.213 23.25 12C23.25 5.787 18.213 0.75 12 0.75ZM22.5 12C22.5 12.8977 22.3867 13.7689 22.1752 14.6002C22.0774 14.5327 21.8186 14.8118 21.7549 14.442C21.675 13.983 21.1575 13.6642 20.8789 13.8836C20.6003 14.103 19.8041 14.7409 19.7648 15.1399C19.7246 15.5385 19.386 16.017 19.2274 15.6788C19.0676 15.3398 18.5906 14.2826 18.6101 14.0036C18.6296 13.7246 18.3904 14.1034 18.0334 13.545C17.6749 12.9866 17.058 13.4647 16.5604 13.1857C16.0627 12.9064 15.5055 12.5276 15.2265 12.4084C14.9486 12.2884 15.7241 13.5247 15.8239 13.3654C15.924 13.206 16.3215 13.485 16.4411 13.485C16.5607 13.485 16.8787 13.764 16.68 14.0235C16.4812 14.283 14.7101 15.3608 14.5309 15.0802C14.3509 14.7998 13.2971 12.6274 13.1175 12.7605C12.9382 12.8936 14.2324 15.1597 14.4514 15.2992C14.6696 15.4391 15.327 15.3195 15.645 15.18C15.9638 15.0405 14.9884 16.7355 14.571 16.935C14.1532 17.1341 13.815 17.7525 13.9935 18.0315C14.1728 18.3105 14.1926 19.3676 13.815 19.5075C13.4362 19.6466 13.2971 19.866 13.4164 20.1255C13.5352 20.3843 13.1381 20.8226 12.9589 21.102C12.7793 21.381 12.0833 21.9592 12.0233 22.119C11.964 22.2788 11.1083 22.2386 10.7692 22.2386C10.4314 22.2386 10.6897 21.8197 10.6496 21.4613C10.6106 21.102 10.3121 20.763 10.3121 20.5837C10.3121 20.4041 10.212 19.9853 10.0732 19.7861C9.93412 19.5863 9.89362 19.2075 10.0331 18.9885C10.173 18.7688 10.272 18.1313 9.99412 17.8519C9.71513 17.5729 9.39637 17.094 9.61575 16.7153C9.83475 16.3365 9.37687 16.3766 8.99887 16.1966C8.6205 16.017 7.84425 16.2566 7.44637 16.3166C7.04813 16.3763 6.65063 16.2169 6.531 16.017C6.41175 15.8179 6.153 15.3195 5.88788 15.1995C5.6235 15.0803 5.775 14.5616 5.934 14.3625C6.09375 14.1634 5.775 13.7843 5.934 13.6241C6.09375 13.4648 6.19275 12.8869 6.51113 12.7605C6.82988 12.6345 6.76988 12.5479 6.77962 12.2486C6.78975 11.9494 7.13775 11.9494 7.197 11.79C7.257 11.6302 7.43588 11.5507 7.79513 11.5507C8.15325 11.5507 8.75962 11.3411 9.04838 11.2714C9.33712 11.2016 9.83475 11.1019 9.79462 11.3813C9.75488 11.6602 9.765 11.979 9.95362 11.979C10.143 11.979 10.4018 12.0889 10.7003 12.2749C10.9987 12.4605 11.0085 12.3086 11.0486 12.099C11.0887 11.8894 11.5061 11.9693 11.9381 12.1688C12.3701 12.3682 12.9593 12.2284 13.1475 12.2089C13.3369 12.1882 13.4167 11.6205 13.3669 11.4311C13.3166 11.2417 13.0185 11.5208 12.8295 11.4011C12.6405 11.2819 12.3814 11.4311 12.1927 11.2613C12.0034 11.0921 11.9734 10.6931 12.1927 10.6834C12.4114 10.6733 12.5213 10.6035 12.6503 10.4543C12.78 10.3046 13.2675 10.215 13.4565 10.3643C13.6451 10.5139 13.9245 10.6136 14.0929 10.4441C14.262 10.275 13.7554 9.94613 13.6451 9.85612C13.5356 9.7665 13.6252 9.47738 13.5161 9.47738C13.4062 9.47738 13.3166 9.52687 13.3766 9.66675C13.4363 9.80625 13.0582 10.0553 12.9979 9.91613C12.9386 9.77625 12.8392 9.50738 12.69 9.50738C12.5411 9.50738 12.342 10.1854 12.3319 10.2949C12.3217 10.4047 12.063 10.584 11.8545 10.584C11.646 10.584 11.646 10.8236 11.7551 10.9335C11.8646 11.043 11.7847 11.4817 11.586 11.5069C11.3869 11.5324 11.3171 11.4619 11.2875 11.292C11.2579 11.1229 11.0588 11.1428 11.0486 10.7936C11.0385 10.4445 10.8195 10.2754 10.6804 10.1156C10.5413 9.95588 10.1828 9.4875 10.0436 9.69712C9.9045 9.90675 10.5413 10.3552 10.71 10.4745C10.8799 10.5941 10.8499 10.8532 10.7603 10.9132C10.6706 10.9732 10.5015 11.4619 10.4021 11.5013C10.302 11.541 10.2071 11.3527 10.2071 11.3527C10.0579 11.2931 10.4156 11.1135 10.4756 11.0239C10.5349 10.9342 9.849 10.3061 9.72525 10.1265C9.6015 9.94687 9.07275 10.2758 8.83425 10.1565C8.59538 10.0372 8.23687 10.605 8.20762 10.9339C8.17725 11.2631 7.78912 11.3524 7.431 11.3524C7.07325 11.3524 6.834 11.0835 6.954 10.8142C7.07325 10.545 6.894 10.0965 7.10325 10.0665C7.31212 10.0369 7.90838 10.0665 8.028 9.73763C8.14725 9.40875 7.46063 9.1095 7.72988 9.04988C7.998 8.98987 8.4165 8.57175 8.715 8.33212C9.01275 8.09288 9.04275 7.794 9.31125 7.773C9.5805 7.75238 9.252 7.25512 9.49088 7.10588C9.73013 6.95625 9.78938 7.64437 9.96863 7.64437C10.1479 7.64437 10.5052 7.58438 10.8041 7.734C11.103 7.88363 11.1923 7.58437 11.3119 7.19513C11.4311 6.80662 11.7296 6.597 12.3263 6.29813C12.9232 5.99888 11.6404 6.38775 11.4011 6.0885C11.1622 5.78925 11.4908 5.13112 11.6404 4.6665C11.7896 4.2015 11.1626 5.13112 10.8341 5.61C10.5052 6.0885 10.9237 6.29775 10.8934 6.62663C10.8637 6.95587 10.3271 7.34437 10.3271 7.34437C10.0883 7.37437 10.1179 6.89587 9.99862 6.68662C9.879 6.47737 9.66975 6.567 9.34125 6.80625C9.01275 7.0455 8.98312 6.23812 8.89388 5.90887C8.805 5.58038 9.43125 5.16112 9.72563 4.93762C10.0196 4.71337 10.5052 3.636 11.043 2.799C11.5807 1.96163 12.3566 2.38012 12.5655 2.70937C12.7751 3.03787 13.3114 2.82862 13.8195 3.42712C14.3273 4.02525 13.6999 4.29413 13.1336 4.05113C12.5655 3.80813 13.2525 4.65337 13.5802 4.89262C13.9088 5.1315 14.088 4.35413 14.2076 4.17488C14.3269 3.99525 14.7743 4.08525 15.1024 3.60637C15.4312 3.12787 16.1771 3.21788 16.6031 3.27037C17.0295 3.32325 16.9234 3.00825 16.6549 2.75063C16.4561 2.56012 16.8626 2.727 17.3411 2.96062C20.4285 4.788 22.5 8.15138 22.5 12ZM7.51575 8.427C7.41675 8.32463 7.61588 7.9215 7.70513 7.80188C7.79513 7.68225 7.45612 7.722 7.47675 7.89188C7.49662 8.061 7.347 8.3205 7.13812 8.39025C6.92925 8.46 6.69112 8.43975 6.81 8.25037C6.92887 8.061 6.81975 7.8915 6.73013 7.71187C6.64088 7.53225 7.22738 7.42275 7.34737 7.31325C7.46663 7.20375 7.15875 7.13363 7.16813 6.9645C7.17825 6.79463 7.248 6.64537 7.3665 6.6255C7.48612 6.60562 7.59788 6.52913 7.70513 6.53588C8.034 6.55613 7.9335 7.3035 8.0535 7.54313C8.17275 7.782 8.51138 8.0715 8.48138 8.28037C8.45138 8.49 8.38762 8.60962 8.14387 8.54962C7.899 8.48962 7.50712 8.85863 7.35712 8.78888C7.2075 8.71875 7.61587 8.52938 7.51575 8.427ZM5.3715 4.23413C5.67038 4.38338 5.9085 4.11263 6.117 4.0545C6.36413 3.98625 6.50513 4.86225 6.26663 4.83225C6.02775 4.80225 5.75925 5.31075 5.41425 5.28075C5.06887 5.25075 5.22188 5.01188 4.83375 4.653C4.7505 4.57575 4.71638 4.506 4.71338 4.44487C4.79625 4.365 4.87875 4.28475 4.96463 4.20787C5.09888 4.17225 5.25825 4.1775 5.3715 4.23413ZM14.7098 19.287C14.9884 19.2274 14.9347 18.6971 15.1875 18.669C15.7249 18.6094 15.2074 20.1045 15.0086 20.5234C14.8095 20.9422 14.7292 20.922 14.5399 20.6629C14.3497 20.4041 14.4112 19.9849 14.5399 19.7858C14.6681 19.5859 14.4308 19.347 14.7098 19.287Z" fill="#8095E0"/>
</g>
<defs>
<clipPath id="clip0_2574_69527">
<rect width="24" height="24" fill="white"/>
</clipPath>
</defs>
</svg>
