<svg width="22" height="17" viewBox="0 0 22 17" fill="none" xmlns="http://www.w3.org/2000/svg">
<path d="M0.713867 1.24314C0.713867 0.714061 1.14277 0.285156 1.67185 0.285156H20.3273C20.8564 0.285156 21.2853 0.71406 21.2853 1.24314V7.8986C21.2853 8.42768 20.8564 8.85658 20.3273 8.85658H1.67185C1.14277 8.85658 0.713867 8.42768 0.713867 7.8986V1.24314Z" fill="#1B034F"/>
<path fill-rule="evenodd" clip-rule="evenodd" d="M2.15084 1.72213V7.41961H19.8483V1.72213H2.15084ZM1.67185 0.285156C1.14277 0.285156 0.713867 0.714061 0.713867 1.24314V7.8986C0.713867 8.42768 1.14277 8.85658 1.67185 8.85658H20.3273C20.8564 8.85658 21.2853 8.42768 21.2853 7.8986V1.24314C21.2853 0.71406 20.8564 0.285156 20.3273 0.285156H1.67185Z" fill="white"/>
<path fill-rule="evenodd" clip-rule="evenodd" d="M3.28516 4.70872C3.28516 4.31191 3.60683 3.99023 4.00364 3.99023H17.9412C18.338 3.99023 18.6597 4.31191 18.6597 4.70872C18.6597 5.10553 18.338 5.42721 17.9412 5.42721H4.00364C3.60683 5.42721 3.28516 5.10553 3.28516 4.70872Z" fill="white"/>
<path d="M5.25098 4.11719H10.9989H16.7468V15.613C16.7468 16.1421 16.3179 16.571 15.7888 16.571H6.20896C5.67988 16.571 5.25098 16.1421 5.25098 15.613V4.11719Z" fill="#1B034F"/>
<path fill-rule="evenodd" clip-rule="evenodd" d="M15.3098 15.134V5.55416H6.68795V15.134H15.3098ZM5.25098 4.11719V15.613C5.25098 16.1421 5.67988 16.571 6.20896 16.571H15.7888C16.3179 16.571 16.7468 16.1421 16.7468 15.613V4.11719H5.25098Z" fill="white"/>
<circle cx="10.999" cy="9.86518" r="1.91597" fill="white"/>
</svg>
