<svg width="109" height="109" viewBox="0 0 109 109" fill="none" xmlns="http://www.w3.org/2000/svg">
<path d="M54.5 0C24.4015 0 0 24.4015 0 54.5L0.00181654 54.5963L0 54.6926C0 84.6857 24.2652 109 54.2002 109L54.3165 108.996L54.5 109C84.5985 109 109 84.5985 109 54.5C109 24.4015 84.5985 0 54.5 0ZM105.367 54.5C105.367 58.8491 104.818 63.0692 103.793 67.0968C103.319 66.7698 102.066 68.1214 101.757 66.3301C101.37 64.1065 98.863 62.5624 97.5132 63.6251C96.1634 64.6879 92.3067 67.778 92.1159 69.711C91.9215 71.6421 90.2811 73.9601 89.5126 72.3215C88.7387 70.6792 86.4279 65.5581 86.5224 64.2065C86.6169 62.8549 85.4578 64.6897 83.7284 61.9847C81.9916 59.2797 79.0032 61.5959 76.5925 60.2443C74.1818 58.8909 71.4822 57.0561 70.1306 56.4784C68.7845 55.897 72.5413 61.8866 73.0246 61.1145C73.5096 60.3424 75.4353 61.694 76.0148 61.694C76.5943 61.694 78.1348 63.0456 77.172 64.3027C76.2092 65.5599 67.6291 70.781 66.7607 69.4221C65.8887 68.0632 60.7839 57.5393 59.9137 58.1842C59.0453 58.8291 65.3146 69.8072 66.3755 70.483C67.4328 71.1607 70.6175 70.5811 72.158 69.9053C73.7022 69.2295 68.977 77.4409 66.9551 78.4073C64.9313 79.372 63.2927 82.3677 64.1574 83.7193C65.0258 85.0709 65.1221 90.1921 63.2927 90.8697C61.4578 91.5437 60.7839 92.6064 61.3616 93.8635C61.9374 95.117 60.0136 97.2407 59.1452 98.5941C58.275 99.9457 54.9033 102.747 54.6126 103.521C54.3256 104.295 50.18 104.1 48.5377 104.1C46.9009 104.1 48.1526 102.071 47.9582 100.335C47.7693 98.5941 46.3232 96.9519 46.3232 96.0835C46.3232 95.2133 45.8381 93.1841 45.166 92.2195C44.492 91.2512 44.2958 89.4163 44.9716 88.3554C45.6492 87.2908 46.1288 84.2025 44.7826 82.8491C43.431 81.4975 41.8869 79.1776 42.9496 77.3428C44.0106 75.5079 41.7924 75.7023 39.9612 74.8303C38.1282 73.9601 34.3677 75.121 32.4402 75.4117C30.5109 75.7005 28.5853 74.9284 28.0057 73.9601C27.428 72.9955 26.1745 70.5811 24.8902 69.9998C23.6094 69.4221 24.3433 66.9097 25.1136 65.945C25.8875 64.9804 24.3433 63.1437 25.1136 62.368C25.8875 61.5959 26.3671 58.7964 27.9095 58.1842C29.4536 57.5738 29.163 57.1541 29.2102 55.7044C29.2592 54.2547 30.9451 54.2548 31.2321 53.4827C31.5228 52.7088 32.3894 52.3236 34.1297 52.3236C35.8646 52.3236 38.8022 51.3081 40.201 50.9702C41.5998 50.6323 44.0106 50.1491 43.8162 51.5025C43.6236 52.8541 43.6727 54.3983 44.5864 54.3983C45.5039 54.3983 46.7574 54.9306 48.2034 55.8316C49.6495 56.7309 49.6967 55.9951 49.8911 54.9796C50.0855 53.9641 52.1074 54.351 54.2002 55.3175C56.293 56.284 59.147 55.6063 60.059 55.5119C60.9764 55.412 61.3634 52.6615 61.1218 51.7441C60.8783 50.8267 59.4341 52.1783 58.5185 51.5988C57.6029 51.0211 56.3476 51.7441 55.4338 50.9212C54.5163 50.1019 54.371 48.1689 55.4338 48.1217C56.4929 48.0726 57.0252 47.7347 57.6501 47.0117C58.2787 46.2869 60.6403 45.8527 61.5559 46.5757C62.4697 47.3006 63.8231 47.7838 64.6388 46.9627C65.4581 46.1433 63.0038 44.5501 62.4697 44.1141C61.9393 43.6799 62.3734 42.2793 61.8448 42.2793C61.3125 42.2793 60.8783 42.5191 61.169 43.1967C61.4578 43.8725 59.6266 45.0788 59.3342 44.4048C59.0471 43.7272 58.5657 42.4246 57.8427 42.4246C57.1215 42.4246 56.1568 45.7091 56.1077 46.2396C56.0587 46.7719 54.8052 47.6403 53.7951 47.6403C52.7851 47.6403 52.7851 48.8011 53.3137 49.3334C53.8442 49.8639 53.4572 51.9894 52.4944 52.1111C51.5298 52.2346 51.1919 51.8931 51.0483 51.0701C50.9048 50.2508 49.9402 50.3471 49.8911 48.6558C49.8421 46.9645 48.7811 46.1452 48.1072 45.3713C47.4332 44.5974 45.6964 42.3283 45.0225 43.3438C44.3485 44.3594 47.4332 46.5321 48.2507 47.1098C49.0736 47.6893 48.9283 48.9446 48.4941 49.2353C48.0599 49.526 47.2406 51.8931 46.7592 52.0838C46.2741 52.2764 45.8145 51.3644 45.8145 51.3644C45.0915 51.0756 46.8246 50.2054 47.1152 49.7712C47.4023 49.337 44.0796 46.2941 43.4801 45.4239C42.8806 44.5537 40.3191 46.147 39.1637 45.5693C38.0065 44.9916 36.2697 47.742 36.128 49.3352C35.9809 50.9303 34.1007 51.3626 32.3657 51.3626C30.6326 51.3626 29.4736 50.0601 30.0549 48.7557C30.6326 47.4513 29.7643 45.2786 30.778 45.1333C31.7899 44.9897 34.6784 45.1333 35.2579 43.5401C35.8356 41.9468 32.5093 40.4971 33.8136 40.2083C35.1125 39.9176 37.1399 37.892 38.586 36.7312C40.0284 35.5722 40.1738 34.1243 41.4745 34.0225C42.7789 33.9226 41.1875 31.5137 42.3447 30.7907C43.5037 30.0658 43.7908 33.3994 44.6591 33.3994C45.5275 33.3994 47.2588 33.1088 48.7067 33.8336C50.1545 34.5585 50.5869 33.1088 51.1664 31.2231C51.7441 29.341 53.1902 28.3255 56.0805 26.8776C58.9726 25.4279 52.7578 27.3118 51.5988 25.8621C50.4416 24.4124 52.033 21.2241 52.7578 18.9733C53.4809 16.7206 50.4434 21.2241 48.852 23.544C47.2588 25.8621 49.2862 26.8758 49.139 28.469C48.9955 30.064 46.3959 31.9461 46.3959 31.9461C45.2386 32.0914 45.3822 29.7733 44.8045 28.7596C44.2249 27.7459 43.2112 28.1801 41.6198 29.3392C40.0284 30.4982 39.8849 26.5869 39.4525 24.9919C39.022 23.4005 42.0558 21.3694 43.4819 20.2867C44.9062 19.2003 47.2588 13.9811 49.8639 9.92627C52.469 5.86965 56.2276 7.89705 57.2395 9.49208C58.2551 11.0835 60.8529 10.0698 63.3145 12.9692C65.7742 15.8668 62.735 17.1693 59.9918 15.9921C57.2395 14.8149 60.5677 18.9097 62.1554 20.0687C63.7468 21.2259 64.6152 17.46 65.1947 16.5916C65.7724 15.7214 67.9397 16.1574 69.5293 13.8376C71.1225 11.5195 74.7359 11.9555 76.7996 12.2098C78.8651 12.466 78.351 10.94 77.0503 9.69192C76.0874 8.76905 78.0567 9.57747 80.3748 10.7093C95.3314 19.5619 105.367 35.8556 105.367 54.5ZM32.7763 37.1908C32.2967 36.6949 33.2614 34.7419 33.6937 34.1624C34.1297 33.5829 32.4874 33.7755 32.5874 34.5984C32.6837 35.4177 31.9588 36.6749 30.9469 37.0128C29.935 37.3507 28.7815 37.2526 29.3573 36.3352C29.9332 35.4177 29.4046 34.5966 28.9704 33.7264C28.538 32.8562 31.3793 32.3258 31.9606 31.7953C32.5383 31.2648 31.0468 30.9251 31.0923 30.1058C31.1413 29.2829 31.4792 28.5598 32.0533 28.4635C32.6328 28.3673 33.1742 27.9967 33.6937 28.0294C35.2869 28.1275 34.8001 31.7481 35.3814 32.9089C35.9591 34.0661 37.5996 35.4686 37.4542 36.4805C37.3089 37.496 37 38.0755 35.8192 37.7849C34.6329 37.4942 32.7345 39.2818 32.0079 38.9439C31.283 38.6042 33.2614 37.6868 32.7763 37.1908ZM22.3886 16.8787C23.8365 17.6017 24.9901 16.2901 26.0001 16.0085C27.1973 15.6778 27.8804 19.9216 26.725 19.7762C25.5678 19.6309 24.267 22.0943 22.5957 21.949C20.9226 21.8036 21.6638 20.6464 19.7835 18.9079C19.3802 18.5336 19.2149 18.1957 19.2004 17.8996C19.6018 17.5127 20.0015 17.1239 20.4175 16.7515C21.0679 16.5789 21.84 16.6043 22.3886 16.8787ZM67.6272 89.8015C68.977 89.5126 68.7172 86.9439 69.9417 86.8076C72.545 86.5188 70.0379 93.7618 69.0751 95.791C68.1105 97.8202 67.7217 97.7221 66.8043 96.4668C65.8832 95.2133 66.1812 93.1823 66.8043 92.2176C67.4256 91.2494 66.2756 90.0921 67.6272 89.8015Z" fill="#4700E0"/>
</svg>
